ISO-10303-21;
HEADER;
/******************************************************
* STEP Physical File produced by: That Open Engine WebIfc 0.0.77
* Module: web-ifc/IfcLoader
* Version: 0.0.77
* Source: https://github.com/ThatOpen/engine_web-ifc
* Issues: https://github.com/ThatOpen/engine_web-ifc/issues
******************************************************/
FILE_DESCRIPTION(('ViewDefinition [ReferenceView_v1.2]'),'2;1');
FILE_NAME('web-ifc-model-0.ifc','2026-08-18T14:57:56',(''),('brepjs'),'thatopen/web-ifc-api','thatopen/web-ifc-api','');
FILE_SCHEMA(('IFC4'));
ENDSEC;
DATA;
#859=IFCRELDEFINESBYTYPE('3SMEmFr5bOG9rxuXr$QsTM',#6,$,$,(#306),#858);
#858=IFCROOFTYPE('30sc8vdF5O$hfd7nC_lwmW',#6,'Roof Type',$,$,$,$,$,$,.DOME_ROOF.);
#857=IFCRELDEFINESBYTYPE('03xipZt51I9e4iOh7tKuri',#6,$,$,(#288),#856);
#856=IFCROOFTYPE('1njg6bCGXJHBvTs9ynQJ56',#6,'Roof Type',$,$,$,$,$,$,.HIP_ROOF.);
#855=IFCRELDEFINESBYTYPE('0XeyHlHDHUognEkjt9YJGu',#6,$,$,(#270),#854);
#854=IFCROOFTYPE('1WxTIf4X5G0AQPf6CrDyDg',#6,'Roof Type',$,$,$,$,$,$,.GABLE_ROOF.);
#853=IFCRELDEFINESBYTYPE('2$3KVySGXRnRQfwbRifZRV',#6,$,$,(#751),#852);
#852=IFCRAILINGTYPE('3iWmigNAjHPxLvsDWzE8Pb',#6,'Railing Type',$,$,$,$,$,$,.GUARDRAIL.);
#851=IFCRELDEFINESBYTYPE('1KY9kBJP5QZfbuHEK7grZe',#6,$,$,(#822),#850);
#850=IFCWINDOWTYPE('1kryC16GXRmAzObSyAEMWk',#6,'Window Type',$,$,$,$,$,$,.NOTDEFINED.,.NOTDEFINED.,.F.,$);
#849=IFCRELDEFINESBYTYPE('2ZaLytsSbT7glhI4smkCMC',#6,$,$,(#804),#848);
#848=IFCDOORTYPE('1jGfKvxmLOz9ZWZPkBXTM_',#6,'Door Type',$,$,$,$,$,$,.NOTDEFINED.,.NOTDEFINED.,.F.,$);
#847=IFCRELDEFINESBYTYPE('0DOIkjd6bMu9TkeBjd004s',#6,$,$,(#225,#251),#846);
#846=IFCCOLUMNTYPE('3Fv3GNuV9UteuCjJ5yNv40',#6,'Column Type',$,$,$,$,$,$,.NOTDEFINED.);
#845=IFCRELDEFINESBYTYPE('0k_m3UKlHH5ukhsTnoTykT',#6,$,$,(#199),#844);
#844=IFCBEAMTYPE('3Modm0nR5IzQ90CGeQz7Kt',#6,'Beam Type',$,$,$,$,$,$,.NOTDEFINED.);
#843=IFCRELDEFINESBYTYPE('0i2yRyY29JZOg62nugRQfV',#6,$,$,(#168),#842);
#842=IFCSLABTYPE('0dG7CIYeXP9wuFaVW0dQmj',#6,'Slab Type',$,$,$,$,$,$,.BASESLAB.);
#841=IFCRELDEFINESBYTYPE('1UKqypA5HOgeNoks7ozTKW',#6,$,$,(#58,#96,#134),#840);
#840=IFCWALLTYPE('0iIM5jmbrPY8Ai3LUrxwjA',#6,'Wall Type',$,$,$,$,$,$,.NOTDEFINED.);
#839=IFCRELASSOCIATESMATERIAL('3qNHK6UbXTkxGj4PGxO8PP',#6,$,$,(#306),#838);
#838=IFCMATERIAL('Copper',$,$);
#837=IFCRELASSOCIATESMATERIAL('3uK4zVVbfIdhGgqlsxR8ZC',#6,$,$,(#270,#288),#836);
#836=IFCMATERIAL('Tile',$,$);
#835=IFCRELASSOCIATESMATERIAL('3qK4aJWbfOwh0gpB6tR8A0',#6,$,$,(#251,#199,#751),#834);
#834=IFCMATERIAL('Steel',$,$);
#833=IFCRELASSOCIATESMATERIAL('3qJWfyWbnNWQGeUpOxRv3Z',#6,$,$,(#822,#320),#832);
#832=IFCMATERIAL('Aluminium',$,$);
#831=IFCRELASSOCIATESMATERIAL('1vLPUWzLzR8QabUlx6Q1pl',#6,$,$,(#804),#830);
#830=IFCMATERIAL('Timber',$,$);
#829=IFCRELASSOCIATESMATERIAL('30cLfnbkfTMgya$8ljNGqa',#6,$,$,(#58,#96,#134,#168,#225,#704),#828);
#828=IFCMATERIAL('Concrete',$,$);
#827=IFCRELCONTAINEDINSPATIALSTRUCTURE('0HxQvjLAPKYfyFXFCEJLAe',#6,$,$,(#58,#96,#134,#804,#822,#320,#168,#225,#251,#199,#270,#288,#306,#704,#751),#37);
#826=IFCRELAGGREGATES('15goLyC_5SyOGk2qwyvsH3',#6,$,$,#31,(#37));
#825=IFCRELAGGREGATES('16goSFCk5RNeKk3E6xvsAm',#6,$,$,#25,(#31));
#824=IFCRELAGGREGATES('17goYYCU5Pou8k22Y_vsTf',#6,$,$,#19,(#25));
#823=IFCRELFILLSELEMENT('1CTplnetDQCBIQ1FTQfdB6',#6,$,$,#786,#822);
#822=IFCWINDOW('2VLzmf0m9JZ8sqChzGFBEY',#6,'Window 1',$,$,#810,#821,$,1.2,1.6,$,$,$);
#821=IFCPRODUCTDEFINITIONSHAPE($,$,(#820));
#820=IFCSHAPEREPRESENTATION(#16,'Body','SweptSolid',(#819));
#819=IFCEXTRUDEDAREASOLID(#811,#817,#818,0.1);
#818=IFCDIRECTION((0.,0.,1.));
#817=IFCAXIS2PLACEMENT3D(#814,#815,#816);
#816=IFCDIRECTION((1.,0.,0.));
#815=IFCDIRECTION((0.,0.,1.));
#814=IFCCARTESIANPOINT((0.,0.,0.));
#811=IFCRECTANGLEPROFILEDEF(.AREA.,$,#813,1.6,1.2);
#813=IFCAXIS2PLACEMENT2D(#812,$);
#812=IFCCARTESIANPOINT((0.,0.));
#810=IFCLOCALPLACEMENT(#774,#809);
#809=IFCAXIS2PLACEMENT3D(#806,#807,#808);
#808=IFCDIRECTION((1.,0.,0.));
#807=IFCDIRECTION((0.,0.,1.));
#806=IFCCARTESIANPOINT((0.,0.,0.));
#805=IFCRELFILLSELEMENT('33VhCBj7PJYgUNiUdVdlLW',#6,$,$,#768,#804);
#804=IFCDOOR('1hnKrPDrbOFBklKL$LmgOY',#6,'Door 1',$,$,#792,#803,$,2.1,1.,$,$,$);
#803=IFCPRODUCTDEFINITIONSHAPE($,$,(#802));
#802=IFCSHAPEREPRESENTATION(#16,'Body','SweptSolid',(#801));
#801=IFCEXTRUDEDAREASOLID(#793,#799,#800,0.1);
#800=IFCDIRECTION((0.,0.,1.));
#799=IFCAXIS2PLACEMENT3D(#796,#797,#798);
#798=IFCDIRECTION((1.,0.,0.));
#797=IFCDIRECTION((0.,0.,1.));
#796=IFCCARTESIANPOINT((0.,0.,0.));
#793=IFCRECTANGLEPROFILEDEF(.AREA.,$,#795,1.,2.1);
#795=IFCAXIS2PLACEMENT2D(#794,$);
#794=IFCCARTESIANPOINT((0.,0.));
#792=IFCLOCALPLACEMENT(#756,#791);
#791=IFCAXIS2PLACEMENT3D(#788,#789,#790);
#790=IFCDIRECTION((1.,0.,0.));
#789=IFCDIRECTION((0.,0.,1.));
#788=IFCCARTESIANPOINT((0.,0.,0.));
#787=IFCRELVOIDSELEMENT('0FUQNcOEHLiQ_meBGnAxMV',#6,$,$,#96,#786);
#786=IFCOPENINGELEMENT('2_SOBP2KfTeecDPnSYzo_0',#6,$,$,$,#774,#785,$,$);
#785=IFCPRODUCTDEFINITIONSHAPE($,$,(#784));
#784=IFCSHAPEREPRESENTATION(#16,'Body','SweptSolid',(#783));
#783=IFCEXTRUDEDAREASOLID(#775,#781,#782,0.2);
#782=IFCDIRECTION((0.,0.,1.));
#781=IFCAXIS2PLACEMENT3D(#778,#779,#780);
#780=IFCDIRECTION((1.,0.,0.));
#779=IFCDIRECTION((0.,0.,1.));
#778=IFCCARTESIANPOINT((0.,0.,0.));
#775=IFCRECTANGLEPROFILEDEF(.AREA.,$,#777,1.6,1.2);
#777=IFCAXIS2PLACEMENT2D(#776,$);
#776=IFCCARTESIANPOINT((0.,0.));
#774=IFCLOCALPLACEMENT(#80,#773);
#773=IFCAXIS2PLACEMENT3D(#770,#771,#772);
#772=IFCDIRECTION((1.,0.,0.));
#771=IFCDIRECTION((0.,-1.,0.));
#770=IFCCARTESIANPOINT((5.8,0.1,0.));
#769=IFCRELVOIDSELEMENT('2GVA_GK_5Ievoe$OR0CrA1',#6,$,$,#96,#768);
#768=IFCOPENINGELEMENT('31SyOf1aXQKhI5mCEt$jNK',#6,$,$,$,#756,#767,$,$);
#767=IFCPRODUCTDEFINITIONSHAPE($,$,(#766));
#766=IFCSHAPEREPRESENTATION(#16,'Body','SweptSolid',(#765));
#765=IFCEXTRUDEDAREASOLID(#757,#763,#764,0.2);
#764=IFCDIRECTION((0.,0.,1.));
#763=IFCAXIS2PLACEMENT3D(#760,#761,#762);
#762=IFCDIRECTION((1.,0.,0.));
#761=IFCDIRECTION((0.,0.,1.));
#760=IFCCARTESIANPOINT((0.,0.,0.));
#757=IFCRECTANGLEPROFILEDEF(.AREA.,$,#759,1.,2.1);
#759=IFCAXIS2PLACEMENT2D(#758,$);
#758=IFCCARTESIANPOINT((0.,0.));
#756=IFCLOCALPLACEMENT(#80,#755);
#755=IFCAXIS2PLACEMENT3D(#752,#753,#754);
#754=IFCDIRECTION((1.,0.,0.));
#753=IFCDIRECTION((0.,-1.,0.));
#752=IFCCARTESIANPOINT((1.7,0.1,-0.44999999999999996));
#751=IFCRAILING('0yDZgokaXIKQ7c_AJFB_Up',#6,'Railing 1',$,$,#746,#750,$,$);
#750=IFCPRODUCTDEFINITIONSHAPE($,$,(#749));
#749=IFCSHAPEREPRESENTATION(#16,'Body','Tessellation',(#748));
#748=IFCTRIANGULATEDFACESET(#747,$,.T.,((1,2,3),(3,2,4),(5,6,7),(7,6,8),(9,10,11),(11,10,12),(14,13,15),(14,15,16),(18,20,17),(17,20,19),(22,24,21),(21,24,23),(25,26,27),(27,26,28),(29,30,31),(31,30,32),(34,33,35),(34,35,36),(40,38,37),(40,37,39),(42,44,41),(41,44,43),(45,46,47),(47,46,48),(50,49,51),(50,51,52),(54,53,55),(54,55,56),(57,58,59),(59,58,60),(64,62,61),(64,61,63),(66,65,67),(66,67,68),(70,69,71),(70,71,72),(74,76,73),(73,76,75),(78,80,77),(77,80,79),(81,82,83),(83,82,84),(85,86,87),(87,86,88),(89,90,91),(91,90,92),(94,96,93),(93,96,95),(100,98,97),(100,97,99),(104,102,101),(104,101,103),(108,106,105),(108,105,107),(110,109,111),(110,111,112),(114,116,113),(113,116,115),(117,118,119),(119,118,120),(122,121,123),(122,123,124),(126,125,127),(126,127,128),(129,130,131),(131,130,132),(136,134,133),(136,133,135),(138,137,139),(138,139,140),(142,141,143),(142,143,144),(146,148,145),(145,148,147),(150,152,149),(149,152,151),(153,154,155),(155,154,156),(157,158,159),(159,158,160),(161,162,163),(163,162,164),(166,168,165),(165,168,167),(172,170,169),(172,169,171),(176,174,173),(176,173,175),(180,178,177),(180,177,179),(182,181,183),(182,183,184),(186,188,185),(185,188,187),(189,190,191),(191,190,192),(194,193,195),(194,195,196),(198,197,199),(198,199,200),(201,202,203),(203,202,204),(208,206,205),(208,205,207),(210,209,211),(210,211,212),(214,213,215),(214,215,216),(218,220,217),(217,220,219),(222,221,223),(222,223,224),(225,226,227),(227,226,228),(229,230,231),(231,230,232),(233,234,235),(235,234,236),(238,240,237),(237,240,239),(244,242,241),(244,241,243),(248,246,245),(248,245,247),(250,249,251),(250,251,252),(254,253,255),(254,255,256),(257,258,259),(259,258,260),(264,262,261),(264,261,263),(266,265,267),(266,267,268),(270,269,271),(270,271,272)),$);
#747=IFCCARTESIANPOINTLIST3D(((0.,0.,0.),(0.,0.,0.05),(0.,0.05,0.),(0.,0.05,0.05),(0.05,0.,0.),(0.05,0.,0.05),(0.,0.,0.),(0.,0.,0.05),(0.,0.,0.05),(0.,0.,0.95),(0.,0.05,0.05),(0.,0.05,0.95),(0.05,0.05,0.),(0.05,0.05,0.05),(0.,0.05,0.),(0.,0.05,0.05),(0.,0.,0.),(0.,0.05,0.),(0.05,0.,0.),(0.05,0.05,0.),(0.05,0.,0.),(0.8166666870117187,0.,0.),(0.05,0.,0.05),(0.8166666870117187,0.,0.05),(0.05,0.,0.05),(0.05,0.,0.95),(0.,0.,0.05),(0.,0.,0.95),(0.,0.,0.95),(0.,0.,1.),(0.,0.05,0.95),(0.,0.05,1.),(0.05,0.05,0.05),(0.05,0.05,0.95),(0.,0.05,0.05),(0.,0.05,0.95),(0.05,0.05,0.),(0.8166666870117187,0.05,0.),(0.05,0.05,0.05),(0.8166666870117187,0.05,0.05),(0.05,0.,0.),(0.05,0.05,0.),(0.8166666870117187,0.,0.),(0.8166666870117187,0.05,0.),(0.8666666870117188,0.,0.),(0.8666666870117188,0.,0.05),(0.8166666870117187,0.,0.),(0.8166666870117187,0.,0.05),(0.05,0.05,0.05),(0.8166666870117187,0.05,0.05),(0.05,0.,0.05),(0.8166666870117187,0.,0.05),(0.05,0.,0.05),(0.05,0.,0.95),(0.05,0.05,0.05),(0.05,0.05,0.95),(0.05,0.,0.95),(0.05,0.,1.),(0.,0.,0.95),(0.,0.,1.),(0.,0.,1.),(0.,0.05,1.),(0.05,0.,1.),(0.05,0.05,1.),(0.05,0.05,0.95),(0.05,0.05,1.),(0.,0.05,0.95),(0.,0.05,1.),(0.8666666870117188,0.05,0.),(0.8666666870117188,0.05,0.05),(0.8166666870117187,0.05,0.),(0.8166666870117187,0.05,0.05),(0.8166666870117187,0.,0.),(0.8166666870117187,0.05,0.),(0.8666666870117188,0.,0.),(0.8666666870117188,0.05,0.),(0.8666666870117188,0.,0.),(1.6333333740234375,0.,0.),(0.8666666870117188,0.,0.05),(1.6333333740234375,0.,0.05),(0.8666666870117188,0.,0.05),(0.8666666870117188,0.,0.95),(0.8166666870117187,0.,0.05),(0.8166666870117187,0.,0.95),(0.8166666870117187,0.,0.05),(0.8166666870117187,0.,0.95),(0.8166666870117187,0.05,0.05),(0.8166666870117187,0.05,0.95),(0.05,0.05,0.95),(0.8166666870117187,0.05,0.95),(0.05,0.,0.95),(0.8166666870117187,0.,0.95),(0.05,0.,0.95),(0.8166666870117187,0.,0.95),(0.05,0.,1.),(0.8166666870117187,0.,1.),(0.05,0.,1.),(0.05,0.05,1.),(0.8166666870117187,0.,1.),(0.8166666870117187,0.05,1.),(0.05,0.05,0.95),(0.8166666870117187,0.05,0.95),(0.05,0.05,1.),(0.8166666870117187,0.05,1.),(0.8666666870117188,0.05,0.),(1.6333333740234375,0.05,0.),(0.8666666870117188,0.05,0.05),(1.6333333740234375,0.05,0.05),(0.8666666870117188,0.05,0.05),(0.8666666870117188,0.05,0.95),(0.8166666870117187,0.05,0.05),(0.8166666870117187,0.05,0.95),(0.8666666870117188,0.,0.),(0.8666666870117188,0.05,0.),(1.6333333740234375,0.,0.),(1.6333333740234375,0.05,0.),(1.6833333740234375,0.,0.),(1.6833333740234375,0.,0.05),(1.6333333740234375,0.,0.),(1.6333333740234375,0.,0.05),(0.8666666870117188,0.05,0.05),(1.6333333740234375,0.05,0.05),(0.8666666870117188,0.,0.05),(1.6333333740234375,0.,0.05),(0.8666666870117188,0.,0.05),(0.8666666870117188,0.,0.95),(0.8666666870117188,0.05,0.05),(0.8666666870117188,0.05,0.95),(0.8666666870117188,0.,0.95),(0.8666666870117188,0.,1.),(0.8166666870117187,0.,0.95),(0.8166666870117187,0.,1.),(0.8166666870117187,0.,1.),(0.8166666870117187,0.05,1.),(0.8666666870117188,0.,1.),(0.8666666870117188,0.05,1.),(0.8666666870117188,0.05,0.95),(0.8666666870117188,0.05,1.),(0.8166666870117187,0.05,0.95),(0.8166666870117187,0.05,1.),(1.6833333740234375,0.05,0.),(1.6833333740234375,0.05,0.05),(1.6333333740234375,0.05,0.),(1.6333333740234375,0.05,0.05),(1.6333333740234375,0.,0.),(1.6333333740234375,0.05,0.),(1.6833333740234375,0.,0.),(1.6833333740234375,0.05,0.),(1.6833333740234375,0.,0.),(2.45,0.,0.),(1.6833333740234375,0.,0.05),(2.45,0.,0.05),(1.6833333740234375,0.,0.05),(1.6833333740234375,0.,0.95),(1.6333333740234375,0.,0.05),(1.6333333740234375,0.,0.95),(1.6333333740234375,0.,0.05),(1.6333333740234375,0.,0.95),(1.6333333740234375,0.05,0.05),(1.6333333740234375,0.05,0.95),(0.8666666870117188,0.05,0.95),(1.6333333740234375,0.05,0.95),(0.8666666870117188,0.,0.95),(1.6333333740234375,0.,0.95),(0.8666666870117188,0.,0.95),(1.6333333740234375,0.,0.95),(0.8666666870117188,0.,1.),(1.6333333740234375,0.,1.),(0.8666666870117188,0.,1.),(0.8666666870117188,0.05,1.),(1.6333333740234375,0.,1.),(1.6333333740234375,0.05,1.),(0.8666666870117188,0.05,0.95),(1.6333333740234375,0.05,0.95),(0.8666666870117188,0.05,1.),(1.6333333740234375,0.05,1.),(1.6833333740234375,0.05,0.),(2.45,0.05,0.),(1.6833333740234375,0.05,0.05),(2.45,0.05,0.05),(1.6833333740234375,0.05,0.05),(1.6833333740234375,0.05,0.95),(1.6333333740234375,0.05,0.05),(1.6333333740234375,0.05,0.95),(1.6833333740234375,0.,0.),(1.6833333740234375,0.05,0.),(2.45,0.,0.),(2.45,0.05,0.),(2.5,0.,0.),(2.5,0.,0.05),(2.45,0.,0.),(2.45,0.,0.05),(1.6833333740234375,0.05,0.05),(2.45,0.05,0.05),(1.6833333740234375,0.,0.05),(2.45,0.,0.05),(1.6833333740234375,0.,0.05),(1.6833333740234375,0.,0.95),(1.6833333740234375,0.05,0.05),(1.6833333740234375,0.05,0.95),(1.6833333740234375,0.,0.95),(1.6833333740234375,0.,1.),(1.6333333740234375,0.,0.95),(1.6333333740234375,0.,1.),(1.6333333740234375,0.,1.),(1.6333333740234375,0.05,1.),(1.6833333740234375,0.,1.),(1.6833333740234375,0.05,1.),(1.6833333740234375,0.05,0.95),(1.6833333740234375,0.05,1.),(1.6333333740234375,0.05,0.95),(1.6333333740234375,0.05,1.),(2.5,0.05,0.),(2.5,0.05,0.05),(2.45,0.05,0.),(2.45,0.05,0.05),(2.45,0.,0.),(2.45,0.05,0.),(2.5,0.,0.),(2.5,0.05,0.),(2.5,0.,0.),(2.5,0.,0.05),(2.5,0.05,0.),(2.5,0.05,0.05),(2.5,0.,0.05),(2.5,0.,0.95),(2.45,0.,0.05),(2.45,0.,0.95),(2.45,0.,0.05),(2.45,0.,0.95),(2.45,0.05,0.05),(2.45,0.05,0.95),(1.6833333740234375,0.05,0.95),(2.45,0.05,0.95),(1.6833333740234375,0.,0.95),(2.45,0.,0.95),(1.6833333740234375,0.,0.95),(2.45,0.,0.95),(1.6833333740234375,0.,1.),(2.45,0.,1.),(1.6833333740234375,0.,1.),(1.6833333740234375,0.05,1.),(2.45,0.,1.),(2.45,0.05,1.),(1.6833333740234375,0.05,0.95),(2.45,0.05,0.95),(1.6833333740234375,0.05,1.),(2.45,0.05,1.),(2.5,0.05,0.05),(2.5,0.05,0.95),(2.45,0.05,0.05),(2.45,0.05,0.95),(2.5,0.,0.05),(2.5,0.,0.95),(2.5,0.05,0.05),(2.5,0.05,0.95),(2.5,0.,0.95),(2.5,0.,1.),(2.45,0.,0.95),(2.45,0.,1.),(2.45,0.,1.),(2.45,0.05,1.),(2.5,0.,1.),(2.5,0.05,1.),(2.5,0.05,0.95),(2.5,0.05,1.),(2.45,0.05,0.95),(2.45,0.05,1.),(2.5,0.,0.95),(2.5,0.,1.),(2.5,0.05,0.95),(2.5,0.05,1.)));
#746=IFCLOCALPLACEMENT(#36,#745);
#745=IFCAXIS2PLACEMENT3D(#742,#743,#744);
#744=IFCDIRECTION((1.,0.,0.));
#743=IFCDIRECTION((0.,0.,1.));
#742=IFCCARTESIANPOINT((0.5,2.2,0.));
#741=IFCRELDEFINESBYTYPE('1YAyu_6yLVHO1qBgo6$a5Z',#6,$,$,(#714,#730),#740);
#740=IFCSTAIRFLIGHTTYPE('1TA4dWFVHPUvPzQUg1ylAb',#6,'Stair Flight Type',$,$,$,$,$,$,.STRAIGHT.);
#739=IFCRELDEFINESBYTYPE('23VMjN9zDUEebn2LqJ8GVm',#6,$,$,(#704),#738);
#738=IFCSTAIRTYPE('279TrnHljRMA58RZCVsbhQ',#6,'Stair Type',$,$,$,$,$,$,.HALF_TURN_STAIR.);
#737=IFCRELAGGREGATES('2BJ3bmAaXI9Rcf8RvTNIWh',#6,$,$,#704,(#714,#730));
#736=IFCRELDEFINESBYPROPERTIES('353lS5yQLPAfd9nfyfNl4K',#6,$,$,(#730),#735);
#735=IFCPROPERTYSET('1KhJUIPjrGsx8ef$XgbdFn',#6,'Pset_StairFlightCommon',$,(#731,#732,#733,#734));
#734=IFCPROPERTYSINGLEVALUE('TreadLength',$,IFCPOSITIVELENGTHMEASURE(0.28),$);
#733=IFCPROPERTYSINGLEVALUE('RiserHeight',$,IFCPOSITIVELENGTHMEASURE(0.175),$);
#732=IFCPROPERTYSINGLEVALUE('NumberOfTreads',$,IFCCOUNTMEASURE(7.),$);
#731=IFCPROPERTYSINGLEVALUE('NumberOfRiser',$,IFCCOUNTMEASURE(8.),$);
#730=IFCSTAIRFLIGHT('1fi1p_N4zRlOzBOpoaA7ch',#6,'Main Stair Flight 2',$,$,#725,#729,$,$,$,$,$,$);
#729=IFCPRODUCTDEFINITIONSHAPE($,$,(#728));
#728=IFCSHAPEREPRESENTATION(#16,'Body','Tessellation',(#727));
#727=IFCTRIANGULATEDFACESET(#726,$,.T.,((2,1,3),(1,4,3),(5,8,6),(6,8,7),(10,9,11),(9,12,11),(13,16,14),(14,16,15),(18,17,19),(17,20,19),(21,24,22),(22,24,23),(26,25,27),(25,28,27),(29,32,30),(30,32,31),(34,33,35),(33,36,35),(37,40,38),(38,40,39),(42,41,43),(41,44,43),(45,48,46),(46,48,47),(50,49,51),(49,52,51),(53,56,54),(54,56,55),(58,57,59),(57,60,59),(61,64,62),(62,64,63),(65,68,66),(66,68,67),(69,71,70),(69,72,71),(73,75,74),(75,77,76),(77,79,78),(79,81,80),(73,90,75),(75,90,77),(77,90,79),(79,90,81),(81,83,82),(90,83,81),(83,85,84),(90,85,83),(85,87,86),(90,87,85),(87,89,88),(90,89,87),(93,91,92),(95,93,94),(97,95,96),(99,97,98),(108,91,93),(108,93,95),(108,95,97),(108,97,99),(101,99,100),(101,108,99),(103,101,102),(103,108,101),(105,103,104),(105,108,103),(107,105,106),(107,108,105)),$);
#726=IFCCARTESIANPOINTLIST3D(((0.,0.,0.),(0.,1.2,0.),(0.,1.2,0.175),(0.,0.,0.175),(0.,0.,0.175),(0.,1.2,0.175),(0.28,1.2,0.175),(0.28,0.,0.175),(0.28,0.,0.175),(0.28,1.2,0.175),(0.28,1.2,0.35),(0.28,0.,0.35),(0.28,0.,0.35),(0.28,1.2,0.35),(0.56,1.2,0.35),(0.56,0.,0.35),(0.56,0.,0.35),(0.56,1.2,0.35),(0.56,1.2,0.525),(0.56,0.,0.525),(0.56,0.,0.525),(0.56,1.2,0.525),(0.84,1.2,0.525),(0.84,0.,0.525),(0.84,0.,0.525),(0.84,1.2,0.525),(0.84,1.2,0.7),(0.84,0.,0.7),(0.84,0.,0.7),(0.84,1.2,0.7),(1.12,1.2,0.7),(1.12,0.,0.7),(1.12,0.,0.7),(1.12,1.2,0.7),(1.12,1.2,0.875),(1.12,0.,0.875),(1.12,0.,0.875),(1.12,1.2,0.875),(1.4,1.2,0.875),(1.4,0.,0.875),(1.4,0.,0.875),(1.4,1.2,0.875),(1.4,1.2,1.05),(1.4,0.,1.05),(1.4,0.,1.05),(1.4,1.2,1.05),(1.68,1.2,1.05),(1.68,0.,1.05),(1.68,0.,1.05),(1.68,1.2,1.05),(1.68,1.2,1.225),(1.68,0.,1.225),(1.68,0.,1.225),(1.68,1.2,1.225),(1.96,1.2,1.225),(1.96,0.,1.225),(1.96,0.,1.225),(1.96,1.2,1.225),(1.96,1.2,1.4),(1.96,0.,1.4),(1.96,0.,1.4),(1.96,1.2,1.4),(2.24,1.2,1.4),(2.24,0.,1.4),(2.24,0.,1.4),(2.24,1.2,1.4),(2.24,1.2,0.),(2.24,0.,0.),(2.24,0.,0.),(2.24,1.2,0.),(0.,1.2,0.),(0.,0.,0.),(0.,0.,0.),(0.,0.,0.175),(0.28,0.,0.175),(0.28,0.,0.35),(0.56,0.,0.35),(0.56,0.,0.525),(0.84,0.,0.525),(0.84,0.,0.7),(1.12,0.,0.7),(1.12,0.,0.875),(1.4,0.,0.875),(1.4,0.,1.05),(1.68,0.,1.05),(1.68,0.,1.225),(1.96,0.,1.225),(1.96,0.,1.4),(2.24,0.,1.4),(2.24,0.,0.),(0.,1.2,0.),(0.,1.2,0.175),(0.28,1.2,0.175),(0.28,1.2,0.35),(0.56,1.2,0.35),(0.56,1.2,0.525),(0.84,1.2,0.525),(0.84,1.2,0.7),(1.12,1.2,0.7),(1.12,1.2,0.875),(1.4,1.2,0.875),(1.4,1.2,1.05),(1.68,1.2,1.05),(1.68,1.2,1.225),(1.96,1.2,1.225),(1.96,1.2,1.4),(2.24,1.2,1.4),(2.24,1.2,0.)));
#725=IFCLOCALPLACEMENT(#703,#724);
#724=IFCAXIS2PLACEMENT3D(#721,#722,#723);
#723=IFCDIRECTION((-1.,0.,0.));
#722=IFCDIRECTION((0.,0.,1.));
#721=IFCCARTESIANPOINT((3.02,1.9,1.575));
#720=IFCRELDEFINESBYPROPERTIES('3D2ePlOQfMgAdF9dqXMcTE',#6,$,$,(#714),#719);
#719=IFCPROPERTYSET('1KiRJ0tk9QyR8ZOKhQaHGJ',#6,'Pset_StairFlightCommon',$,(#715,#716,#717,#718));
#718=IFCPROPERTYSINGLEVALUE('TreadLength',$,IFCPOSITIVELENGTHMEASURE(0.28),$);
#717=IFCPROPERTYSINGLEVALUE('RiserHeight',$,IFCPOSITIVELENGTHMEASURE(0.175),$);
#716=IFCPROPERTYSINGLEVALUE('NumberOfTreads',$,IFCCOUNTMEASURE(8.),$);
#715=IFCPROPERTYSINGLEVALUE('NumberOfRiser',$,IFCCOUNTMEASURE(9.),$);
#714=IFCSTAIRFLIGHT('1gi1wHMqzQAf1BPC_ZA7WO',#6,'Main Stair Flight 1',$,$,#709,#713,$,$,$,$,$,$);
#713=IFCPRODUCTDEFINITIONSHAPE($,$,(#712));
#712=IFCSHAPEREPRESENTATION(#16,'Body','Tessellation',(#711));
#711=IFCTRIANGULATEDFACESET(#710,$,.T.,((2,1,3),(1,4,3),(5,8,6),(6,8,7),(10,9,11),(9,12,11),(13,16,14),(14,16,15),(18,17,19),(17,20,19),(21,24,22),(22,24,23),(26,25,27),(25,28,27),(29,32,30),(30,32,31),(34,33,35),(33,36,35),(37,40,38),(38,40,39),(42,41,43),(41,44,43),(45,48,46),(46,48,47),(50,49,51),(49,52,51),(53,56,54),(54,56,55),(58,57,59),(57,60,59),(61,64,62),(62,64,63),(66,65,67),(65,68,67),(69,72,70),(70,72,71),(73,76,74),(74,76,75),(77,80,78),(78,80,79),(81,83,82),(83,85,84),(85,87,86),(87,89,88),(89,91,90),(81,100,83),(83,100,85),(85,100,87),(87,100,89),(89,100,91),(91,93,92),(100,93,91),(93,95,94),(100,95,93),(95,97,96),(100,97,95),(97,99,98),(100,99,97),(103,101,102),(105,103,104),(107,105,106),(109,107,108),(111,109,110),(120,101,103),(120,103,105),(120,105,107),(120,107,109),(120,109,111),(113,111,112),(113,120,111),(115,113,114),(115,120,113),(117,115,116),(117,120,115),(119,117,118),(119,120,117)),$);
#710=IFCCARTESIANPOINTLIST3D(((0.,0.,0.),(0.,1.2,0.),(0.,1.2,0.175),(0.,0.,0.175),(0.,0.,0.175),(0.,1.2,0.175),(0.28,1.2,0.175),(0.28,0.,0.175),(0.28,0.,0.175),(0.28,1.2,0.175),(0.28,1.2,0.35),(0.28,0.,0.35),(0.28,0.,0.35),(0.28,1.2,0.35),(0.56,1.2,0.35),(0.56,0.,0.35),(0.56,0.,0.35),(0.56,1.2,0.35),(0.56,1.2,0.525),(0.56,0.,0.525),(0.56,0.,0.525),(0.56,1.2,0.525),(0.84,1.2,0.525),(0.84,0.,0.525),(0.84,0.,0.525),(0.84,1.2,0.525),(0.84,1.2,0.7),(0.84,0.,0.7),(0.84,0.,0.7),(0.84,1.2,0.7),(1.12,1.2,0.7),(1.12,0.,0.7),(1.12,0.,0.7),(1.12,1.2,0.7),(1.12,1.2,0.875),(1.12,0.,0.875),(1.12,0.,0.875),(1.12,1.2,0.875),(1.4,1.2,0.875),(1.4,0.,0.875),(1.4,0.,0.875),(1.4,1.2,0.875),(1.4,1.2,1.05),(1.4,0.,1.05),(1.4,0.,1.05),(1.4,1.2,1.05),(1.68,1.2,1.05),(1.68,0.,1.05),(1.68,0.,1.05),(1.68,1.2,1.05),(1.68,1.2,1.225),(1.68,0.,1.225),(1.68,0.,1.225),(1.68,1.2,1.225),(1.96,1.2,1.225),(1.96,0.,1.225),(1.96,0.,1.225),(1.96,1.2,1.225),(1.96,1.2,1.4),(1.96,0.,1.4),(1.96,0.,1.4),(1.96,1.2,1.4),(2.24,1.2,1.4),(2.24,0.,1.4),(2.24,0.,1.4),(2.24,1.2,1.4),(2.24,1.2,1.575),(2.24,0.,1.575),(2.24,0.,1.575),(2.24,1.2,1.575),(2.52,1.2,1.575),(2.52,0.,1.575),(2.52,0.,1.575),(2.52,1.2,1.575),(2.52,1.2,0.),(2.52,0.,0.),(2.52,0.,0.),(2.52,1.2,0.),(0.,1.2,0.),(0.,0.,0.),(0.,0.,0.),(0.,0.,0.175),(0.28,0.,0.175),(0.28,0.,0.35),(0.56,0.,0.35),(0.56,0.,0.525),(0.84,0.,0.525),(0.84,0.,0.7),(1.12,0.,0.7),(1.12,0.,0.875),(1.4,0.,0.875),(1.4,0.,1.05),(1.68,0.,1.05),(1.68,0.,1.225),(1.96,0.,1.225),(1.96,0.,1.4),(2.24,0.,1.4),(2.24,0.,1.575),(2.52,0.,1.575),(2.52,0.,0.),(0.,1.2,0.),(0.,1.2,0.175),(0.28,1.2,0.175),(0.28,1.2,0.35),(0.56,1.2,0.35),(0.56,1.2,0.525),(0.84,1.2,0.525),(0.84,1.2,0.7),(1.12,1.2,0.7),(1.12,1.2,0.875),(1.4,1.2,0.875),(1.4,1.2,1.05),(1.68,1.2,1.05),(1.68,1.2,1.225),(1.96,1.2,1.225),(1.96,1.2,1.4),(2.24,1.2,1.4),(2.24,1.2,1.575),(2.52,1.2,1.575),(2.52,1.2,0.)));
#709=IFCLOCALPLACEMENT(#703,#708);
#708=IFCAXIS2PLACEMENT3D(#705,#706,#707);
#707=IFCDIRECTION((1.,0.,0.));
#706=IFCDIRECTION((0.,0.,1.));
#705=IFCCARTESIANPOINT((0.5,0.5,0.));
#704=IFCSTAIR('1CsMJNg$nLV9IVDK459TnE',#6,'Main Stair',$,$,#703,$,$,$);
#703=IFCLOCALPLACEMENT(#36,#702);
#702=IFCAXIS2PLACEMENT3D(#699,#700,#701);
#701=IFCDIRECTION((1.,0.,0.));
#700=IFCDIRECTION((0.,0.,1.));
#699=IFCCARTESIANPOINT((0.,0.,0.));
#698=IFCRELDEFINESBYPROPERTIES('39bKYa_sHThPRVp8xt4gRF',#6,$,$,(#320),#697);
#697=IFCPROPERTYSET('30bJfvx6HM497VnA$y4gwk',#6,'Pset_CurtainWallCommon',$,(#696));
#696=IFCPROPERTYSINGLEVALUE('IsExternal',$,IFCBOOLEAN(.T.),$);
#695=IFCRELAGGREGATES('0ucPg630LImuhjfeYrAnWj',#6,$,$,#320,(#337,#354,#371,#388,#405,#422,#439,#456,#473,#490,#507,#524,#541,#558,#575,#592,#609,#626,#643,#660,#677,#694));
#694=IFCMEMBER('3F62yn8YvOiAFpDKkGYsOo',#6,'Curtain Wall 1 Mullion 9',$,$,#682,#693,$,.MULLION.);
#693=IFCPRODUCTDEFINITIONSHAPE($,$,(#692));
#692=IFCSHAPEREPRESENTATION(#16,'Body','SweptSolid',(#691));
#691=IFCEXTRUDEDAREASOLID(#685,#689,#690,0.06);
#690=IFCDIRECTION((0.,0.,1.));
#689=IFCAXIS2PLACEMENT3D(#686,#687,#688);
#688=IFCDIRECTION((1.,0.,0.));
#687=IFCDIRECTION((0.,0.,1.));
#686=IFCCARTESIANPOINT((0.,0.,0.));
#685=IFCRECTANGLEPROFILEDEF(.AREA.,$,#684,9.,0.12);
#684=IFCAXIS2PLACEMENT2D(#683,$);
#683=IFCCARTESIANPOINT((4.5,0.06));
#682=IFCLOCALPLACEMENT(#319,#681);
#681=IFCAXIS2PLACEMENT3D(#678,#679,#680);
#680=IFCDIRECTION((1.,0.,0.));
#679=IFCDIRECTION((0.,0.,1.));
#678=IFCCARTESIANPOINT((0.,0.,2.97));
#677=IFCMEMBER('3E62sU8ovQGwBpCxYHYsV5',#6,'Curtain Wall 1 Mullion 8',$,$,#665,#676,$,.MULLION.);
#676=IFCPRODUCTDEFINITIONSHAPE($,$,(#675));
#675=IFCSHAPEREPRESENTATION(#16,'Body','SweptSolid',(#674));
#674=IFCEXTRUDEDAREASOLID(#668,#672,#673,0.06);
#673=IFCDIRECTION((0.,0.,1.));
#672=IFCAXIS2PLACEMENT3D(#669,#670,#671);
#671=IFCDIRECTION((1.,0.,0.));
#670=IFCDIRECTION((0.,0.,1.));
#669=IFCCARTESIANPOINT((0.,0.,0.));
#668=IFCRECTANGLEPROFILEDEF(.AREA.,$,#667,9.,0.12);
#667=IFCAXIS2PLACEMENT2D(#666,$);
#666=IFCCARTESIANPOINT((4.5,0.06));
#665=IFCLOCALPLACEMENT(#319,#664);
#664=IFCAXIS2PLACEMENT3D(#661,#662,#663);
#663=IFCDIRECTION((1.,0.,0.));
#662=IFCDIRECTION((0.,0.,1.));
#661=IFCCARTESIANPOINT((0.,0.,1.47));
#660=IFCMEMBER('3962M$C2vUkg7pCYMIYsbO',#6,'Curtain Wall 1 Mullion 7',$,$,#648,#659,$,.MULLION.);
#659=IFCPRODUCTDEFINITIONSHAPE($,$,(#658));
#658=IFCSHAPEREPRESENTATION(#16,'Body','SweptSolid',(#657));
#657=IFCEXTRUDEDAREASOLID(#651,#655,#656,0.06);
#656=IFCDIRECTION((0.,0.,1.));
#655=IFCAXIS2PLACEMENT3D(#652,#653,#654);
#654=IFCDIRECTION((1.,0.,0.));
#653=IFCDIRECTION((0.,0.,1.));
#652=IFCCARTESIANPOINT((0.,0.,0.));
#651=IFCRECTANGLEPROFILEDEF(.AREA.,$,#650,9.,0.12);
#650=IFCAXIS2PLACEMENT2D(#649,$);
#649=IFCCARTESIANPOINT((4.5,0.06));
#648=IFCLOCALPLACEMENT(#319,#647);
#647=IFCAXIS2PLACEMENT3D(#644,#645,#646);
#646=IFCDIRECTION((1.,0.,0.));
#645=IFCDIRECTION((0.,0.,1.));
#644=IFCCARTESIANPOINT((0.,0.,-0.03));
#643=IFCMEMBER('3862GiCIvGJQ3pC9AJYshh',#6,'Curtain Wall 1 Mullion 6',$,$,#631,#642,$,.MULLION.);
#642=IFCPRODUCTDEFINITIONSHAPE($,$,(#641));
#641=IFCSHAPEREPRESENTATION(#16,'Body','SweptSolid',(#640));
#640=IFCEXTRUDEDAREASOLID(#634,#638,#639,3.);
#639=IFCDIRECTION((0.,0.,1.));
#638=IFCAXIS2PLACEMENT3D(#635,#636,#637);
#637=IFCDIRECTION((1.,0.,0.));
#636=IFCDIRECTION((0.,0.,1.));
#635=IFCCARTESIANPOINT((0.,0.,0.));
#634=IFCRECTANGLEPROFILEDEF(.AREA.,$,#633,0.06,0.12);
#633=IFCAXIS2PLACEMENT2D(#632,$);
#632=IFCCARTESIANPOINT((0.03,0.06));
#631=IFCLOCALPLACEMENT(#319,#630);
#630=IFCAXIS2PLACEMENT3D(#627,#628,#629);
#629=IFCDIRECTION((1.,0.,0.));
#628=IFCDIRECTION((0.,0.,1.));
#627=IFCCARTESIANPOINT((8.97,0.,0.));
#626=IFCMEMBER('3B62ZbBYvRb9$pBl_KYsn_',#6,'Curtain Wall 1 Mullion 5',$,$,#614,#625,$,.MULLION.);
#625=IFCPRODUCTDEFINITIONSHAPE($,$,(#624));
#624=IFCSHAPEREPRESENTATION(#16,'Body','SweptSolid',(#623));
#623=IFCEXTRUDEDAREASOLID(#617,#621,#622,3.);
#622=IFCDIRECTION((0.,0.,1.));
#621=IFCAXIS2PLACEMENT3D(#618,#619,#620);
#620=IFCDIRECTION((1.,0.,0.));
#619=IFCDIRECTION((0.,0.,1.));
#618=IFCCARTESIANPOINT((0.,0.,0.));
#617=IFCRECTANGLEPROFILEDEF(.AREA.,$,#616,0.06,0.12);
#616=IFCAXIS2PLACEMENT2D(#615,$);
#615=IFCCARTESIANPOINT((0.03,0.06));
#614=IFCLOCALPLACEMENT(#319,#613);
#613=IFCAXIS2PLACEMENT3D(#610,#611,#612);
#612=IFCDIRECTION((1.,0.,0.));
#611=IFCDIRECTION((0.,0.,1.));
#610=IFCCARTESIANPOINT((7.47,0.,0.));
#609=IFCMEMBER('3A62TIBovT9vxpBMoLYsuH',#6,'Curtain Wall 1 Mullion 4',$,$,#597,#608,$,.MULLION.);
#608=IFCPRODUCTDEFINITIONSHAPE($,$,(#607));
#607=IFCSHAPEREPRESENTATION(#16,'Body','SweptSolid',(#606));
#606=IFCEXTRUDEDAREASOLID(#600,#604,#605,3.);
#605=IFCDIRECTION((0.,0.,1.));
#604=IFCAXIS2PLACEMENT3D(#601,#602,#603);
#603=IFCDIRECTION((1.,0.,0.));
#602=IFCDIRECTION((0.,0.,1.));
#601=IFCCARTESIANPOINT((0.,0.,0.));
#600=IFCRECTANGLEPROFILEDEF(.AREA.,$,#599,0.06,0.12);
#599=IFCAXIS2PLACEMENT2D(#598,$);
#598=IFCCARTESIANPOINT((0.03,0.06));
#597=IFCLOCALPLACEMENT(#319,#596);
#596=IFCAXIS2PLACEMENT3D(#593,#594,#595);
#595=IFCDIRECTION((1.,0.,0.));
#594=IFCDIRECTION((0.,0.,1.));
#593=IFCCARTESIANPOINT((5.97,0.,0.));
#592=IFCMEMBER('3561zpB2vORftpAzcMYs_a',#6,'Curtain Wall 1 Mullion 3',$,$,#580,#591,$,.MULLION.);
#591=IFCPRODUCTDEFINITIONSHAPE($,$,(#590));
#590=IFCSHAPEREPRESENTATION(#16,'Body','SweptSolid',(#589));
#589=IFCEXTRUDEDAREASOLID(#583,#587,#588,3.);
#588=IFCDIRECTION((0.,0.,1.));
#587=IFCAXIS2PLACEMENT3D(#584,#585,#586);
#586=IFCDIRECTION((1.,0.,0.));
#585=IFCDIRECTION((0.,0.,1.));
#584=IFCCARTESIANPOINT((0.,0.,0.));
#583=IFCRECTANGLEPROFILEDEF(.AREA.,$,#582,0.06,0.12);
#582=IFCAXIS2PLACEMENT2D(#581,$);
#581=IFCCARTESIANPOINT((0.03,0.06));
#580=IFCLOCALPLACEMENT(#319,#579);
#579=IFCAXIS2PLACEMENT3D(#576,#577,#578);
#578=IFCDIRECTION((1.,0.,0.));
#577=IFCDIRECTION((0.,0.,1.));
#576=IFCCARTESIANPOINT((4.47,0.,0.));
#575=IFCMEMBER('3461tWBIvQ0PppAaQNYt4t',#6,'Curtain Wall 1 Mullion 2',$,$,#563,#574,$,.MULLION.);
#574=IFCPRODUCTDEFINITIONSHAPE($,$,(#573));
#573=IFCSHAPEREPRESENTATION(#16,'Body','SweptSolid',(#572));
#572=IFCEXTRUDEDAREASOLID(#566,#570,#571,3.);
#571=IFCDIRECTION((0.,0.,1.));
#570=IFCAXIS2PLACEMENT3D(#567,#568,#569);
#569=IFCDIRECTION((1.,0.,0.));
#568=IFCDIRECTION((0.,0.,1.));
#567=IFCCARTESIANPOINT((0.,0.,0.));
#566=IFCRECTANGLEPROFILEDEF(.AREA.,$,#565,0.06,0.12);
#565=IFCAXIS2PLACEMENT2D(#564,$);
#564=IFCCARTESIANPOINT((0.03,0.06));
#563=IFCLOCALPLACEMENT(#319,#562);
#562=IFCAXIS2PLACEMENT3D(#559,#560,#561);
#561=IFCDIRECTION((1.,0.,0.));
#560=IFCDIRECTION((0.,0.,1.));
#559=IFCCARTESIANPOINT((2.97,0.,0.));
#558=IFCMEMBER('3762APAYvLI9lpABEOYtBA',#6,'Curtain Wall 1 Mullion 1',$,$,#546,#557,$,.MULLION.);
#557=IFCPRODUCTDEFINITIONSHAPE($,$,(#556));
#556=IFCSHAPEREPRESENTATION(#16,'Body','SweptSolid',(#555));
#555=IFCEXTRUDEDAREASOLID(#549,#553,#554,3.);
#554=IFCDIRECTION((0.,0.,1.));
#553=IFCAXIS2PLACEMENT3D(#550,#551,#552);
#552=IFCDIRECTION((1.,0.,0.));
#551=IFCDIRECTION((0.,0.,1.));
#550=IFCCARTESIANPOINT((0.,0.,0.));
#549=IFCRECTANGLEPROFILEDEF(.AREA.,$,#548,0.06,0.12);
#548=IFCAXIS2PLACEMENT2D(#547,$);
#547=IFCCARTESIANPOINT((0.03,0.06));
#546=IFCLOCALPLACEMENT(#319,#545);
#545=IFCAXIS2PLACEMENT3D(#542,#543,#544);
#544=IFCDIRECTION((1.,0.,0.));
#543=IFCDIRECTION((0.,0.,1.));
#542=IFCCARTESIANPOINT((1.47,0.,0.));
#541=IFCMEMBER('366246AovMsvhp9o2PYtHT',#6,'Curtain Wall 1 Mullion 0',$,$,#529,#540,$,.MULLION.);
#540=IFCPRODUCTDEFINITIONSHAPE($,$,(#539));
#539=IFCSHAPEREPRESENTATION(#16,'Body','SweptSolid',(#538));
#538=IFCEXTRUDEDAREASOLID(#532,#536,#537,3.);
#537=IFCDIRECTION((0.,0.,1.));
#536=IFCAXIS2PLACEMENT3D(#533,#534,#535);
#535=IFCDIRECTION((1.,0.,0.));
#534=IFCDIRECTION((0.,0.,1.));
#533=IFCCARTESIANPOINT((0.,0.,0.));
#532=IFCRECTANGLEPROFILEDEF(.AREA.,$,#531,0.06,0.12);
#531=IFCAXIS2PLACEMENT2D(#530,$);
#530=IFCCARTESIANPOINT((0.03,0.06));
#529=IFCLOCALPLACEMENT(#319,#528);
#528=IFCAXIS2PLACEMENT3D(#525,#526,#527);
#527=IFCDIRECTION((1.,0.,0.));
#526=IFCDIRECTION((0.,0.,1.));
#525=IFCCARTESIANPOINT((-0.03,0.,0.));
#524=IFCPLATE('3ngKQcijfVtxogvy0xTSeX',#6,'Curtain Wall 1 Panel 11',$,$,#512,#523,$,.CURTAIN_PANEL.);
#523=IFCPRODUCTDEFINITIONSHAPE($,$,(#522));
#522=IFCSHAPEREPRESENTATION(#16,'Body','SweptSolid',(#521));
#521=IFCEXTRUDEDAREASOLID(#515,#519,#520,1.44);
#520=IFCDIRECTION((0.,0.,1.));
#519=IFCAXIS2PLACEMENT3D(#516,#517,#518);
#518=IFCDIRECTION((1.,0.,0.));
#517=IFCDIRECTION((0.,0.,1.));
#516=IFCCARTESIANPOINT((0.,0.,0.));
#515=IFCRECTANGLEPROFILEDEF(.AREA.,$,#514,1.44,0.03);
#514=IFCAXIS2PLACEMENT2D(#513,$);
#513=IFCCARTESIANPOINT((0.72,0.015));
#512=IFCLOCALPLACEMENT(#319,#511);
#511=IFCAXIS2PLACEMENT3D(#508,#509,#510);
#510=IFCDIRECTION((1.,0.,0.));
#509=IFCDIRECTION((0.,0.,1.));
#508=IFCCARTESIANPOINT((7.53,0.,1.53));
#507=IFCPLATE('3ogKWviTfUJBsgwLCwTSYE',#6,'Curtain Wall 1 Panel 10',$,$,#495,#506,$,.CURTAIN_PANEL.);
#506=IFCPRODUCTDEFINITIONSHAPE($,$,(#505));
#505=IFCSHAPEREPRESENTATION(#16,'Body','SweptSolid',(#504));
#504=IFCEXTRUDEDAREASOLID(#498,#502,#503,1.44);
#503=IFCDIRECTION((0.,0.,1.));
#502=IFCAXIS2PLACEMENT3D(#499,#500,#501);
#501=IFCDIRECTION((1.,0.,0.));
#500=IFCDIRECTION((0.,0.,1.));
#499=IFCCARTESIANPOINT((0.,0.,0.));
#498=IFCRECTANGLEPROFILEDEF(.AREA.,$,#497,1.44,0.03);
#497=IFCAXIS2PLACEMENT2D(#496,$);
#496=IFCCARTESIANPOINT((0.72,0.015));
#495=IFCLOCALPLACEMENT(#319,#494);
#494=IFCAXIS2PLACEMENT3D(#491,#492,#493);
#493=IFCDIRECTION((1.,0.,0.));
#492=IFCDIRECTION((0.,0.,1.));
#491=IFCCARTESIANPOINT((7.53,0.,0.03));
#490=IFCPLATE('2xQUjBmIfRd989HDb37Xao',#6,'Curtain Wall 1 Panel 9',$,$,#478,#489,$,.CURTAIN_PANEL.);
#489=IFCPRODUCTDEFINITIONSHAPE($,$,(#488));
#488=IFCSHAPEREPRESENTATION(#16,'Body','SweptSolid',(#487));
#487=IFCEXTRUDEDAREASOLID(#481,#485,#486,1.44);
#486=IFCDIRECTION((0.,0.,1.));
#485=IFCAXIS2PLACEMENT3D(#482,#483,#484);
#484=IFCDIRECTION((1.,0.,0.));
#483=IFCDIRECTION((0.,0.,1.));
#482=IFCCARTESIANPOINT((0.,0.,0.));
#481=IFCRECTANGLEPROFILEDEF(.AREA.,$,#480,1.44,0.03);
#480=IFCAXIS2PLACEMENT2D(#479,$);
#479=IFCCARTESIANPOINT((0.72,0.015));
#478=IFCLOCALPLACEMENT(#319,#477);
#477=IFCAXIS2PLACEMENT3D(#474,#475,#476);
#476=IFCDIRECTION((1.,0.,0.));
#475=IFCDIRECTION((0.,0.,1.));
#474=IFCCARTESIANPOINT((6.03,0.,1.53));
#473=IFCPLATE('2wQUcumYfTBv49GqP47Xh5',#6,'Curtain Wall 1 Panel 8',$,$,#461,#472,$,.CURTAIN_PANEL.);
#472=IFCPRODUCTDEFINITIONSHAPE($,$,(#471));
#471=IFCSHAPEREPRESENTATION(#16,'Body','SweptSolid',(#470));
#470=IFCEXTRUDEDAREASOLID(#464,#468,#469,1.44);
#469=IFCDIRECTION((0.,0.,1.));
#468=IFCAXIS2PLACEMENT3D(#465,#466,#467);
#467=IFCDIRECTION((1.,0.,0.));
#466=IFCDIRECTION((0.,0.,1.));
#465=IFCCARTESIANPOINT((0.,0.,0.));
#464=IFCRECTANGLEPROFILEDEF(.AREA.,$,#463,1.44,0.03);
#463=IFCAXIS2PLACEMENT2D(#462,$);
#462=IFCCARTESIANPOINT((0.72,0.015));
#461=IFCLOCALPLACEMENT(#319,#460);
#460=IFCAXIS2PLACEMENT3D(#457,#458,#459);
#459=IFCDIRECTION((1.,0.,0.));
#458=IFCDIRECTION((0.,0.,1.));
#457=IFCCARTESIANPOINT((6.03,0.,0.03));
#456=IFCPLATE('2vQUWbnofL3fm9L9T57XnO',#6,'Curtain Wall 1 Panel 7',$,$,#444,#455,$,.CURTAIN_PANEL.);
#455=IFCPRODUCTDEFINITIONSHAPE($,$,(#454));
#454=IFCSHAPEREPRESENTATION(#16,'Body','SweptSolid',(#453));
#453=IFCEXTRUDEDAREASOLID(#447,#451,#452,1.44);
#452=IFCDIRECTION((0.,0.,1.));
#451=IFCAXIS2PLACEMENT3D(#448,#449,#450);
#450=IFCDIRECTION((1.,0.,0.));
#449=IFCDIRECTION((0.,0.,1.));
#448=IFCCARTESIANPOINT((0.,0.,0.));
#447=IFCRECTANGLEPROFILEDEF(.AREA.,$,#446,1.44,0.03);
#446=IFCAXIS2PLACEMENT2D(#445,$);
#445=IFCCARTESIANPOINT((0.72,0.015));
#444=IFCLOCALPLACEMENT(#319,#443);
#443=IFCAXIS2PLACEMENT3D(#440,#441,#442);
#442=IFCDIRECTION((1.,0.,0.));
#441=IFCDIRECTION((0.,0.,1.));
#440=IFCCARTESIANPOINT((4.53,0.,1.53));
#439=IFCPLATE('2uQUQIo2fMePi9KmH67Xth',#6,'Curtain Wall 1 Panel 6',$,$,#427,#438,$,.CURTAIN_PANEL.);
#438=IFCPRODUCTDEFINITIONSHAPE($,$,(#437));
#437=IFCSHAPEREPRESENTATION(#16,'Body','SweptSolid',(#436));
#436=IFCEXTRUDEDAREASOLID(#430,#434,#435,1.44);
#435=IFCDIRECTION((0.,0.,1.));
#434=IFCAXIS2PLACEMENT3D(#431,#432,#433);
#433=IFCDIRECTION((1.,0.,0.));
#432=IFCDIRECTION((0.,0.,1.));
#431=IFCCARTESIANPOINT((0.,0.,0.));
#430=IFCRECTANGLEPROFILEDEF(.AREA.,$,#429,1.44,0.03);
#429=IFCAXIS2PLACEMENT2D(#428,$);
#428=IFCCARTESIANPOINT((0.72,0.015));
#427=IFCLOCALPLACEMENT(#319,#426);
#426=IFCAXIS2PLACEMENT3D(#423,#424,#425);
#425=IFCDIRECTION((1.,0.,0.));
#424=IFCDIRECTION((0.,0.,1.));
#423=IFCCARTESIANPOINT((4.53,0.,0.03));
#422=IFCPLATE('2tQUJ$nIfHw9u9Lxr77Xz_',#6,'Curtain Wall 1 Panel 5',$,$,#410,#421,$,.CURTAIN_PANEL.);
#421=IFCPRODUCTDEFINITIONSHAPE($,$,(#420));
#420=IFCSHAPEREPRESENTATION(#16,'Body','SweptSolid',(#419));
#419=IFCEXTRUDEDAREASOLID(#413,#417,#418,1.44);
#418=IFCDIRECTION((0.,0.,1.));
#417=IFCAXIS2PLACEMENT3D(#414,#415,#416);
#416=IFCDIRECTION((1.,0.,0.));
#415=IFCDIRECTION((0.,0.,1.));
#414=IFCCARTESIANPOINT((0.,0.,0.));
#413=IFCRECTANGLEPROFILEDEF(.AREA.,$,#412,1.44,0.03);
#412=IFCAXIS2PLACEMENT2D(#411,$);
#411=IFCCARTESIANPOINT((0.72,0.015));
#410=IFCLOCALPLACEMENT(#319,#409);
#409=IFCAXIS2PLACEMENT3D(#406,#407,#408);
#408=IFCDIRECTION((1.,0.,0.));
#407=IFCDIRECTION((0.,0.,1.));
#406=IFCCARTESIANPOINT((3.03,0.,1.53));
#405=IFCPLATE('2sQUDinYfJUvq9LYf87Y4H',#6,'Curtain Wall 1 Panel 4',$,$,#393,#404,$,.CURTAIN_PANEL.);
#404=IFCPRODUCTDEFINITIONSHAPE($,$,(#403));
#403=IFCSHAPEREPRESENTATION(#16,'Body','SweptSolid',(#402));
#402=IFCEXTRUDEDAREASOLID(#396,#400,#401,1.44);
#401=IFCDIRECTION((0.,0.,1.));
#400=IFCAXIS2PLACEMENT3D(#397,#398,#399);
#399=IFCDIRECTION((1.,0.,0.));
#398=IFCDIRECTION((0.,0.,1.));
#397=IFCCARTESIANPOINT((0.,0.,0.));
#396=IFCRECTANGLEPROFILEDEF(.AREA.,$,#395,1.44,0.03);
#395=IFCAXIS2PLACEMENT2D(#394,$);
#394=IFCCARTESIANPOINT((0.72,0.015));
#393=IFCLOCALPLACEMENT(#319,#392);
#392=IFCAXIS2PLACEMENT3D(#389,#390,#391);
#391=IFCDIRECTION((1.,0.,0.));
#390=IFCDIRECTION((0.,0.,1.));
#389=IFCCARTESIANPOINT((3.03,0.,0.03));
#388=IFCPLATE('2rQU7PoofRMfW9Jaj97YAa',#6,'Curtain Wall 1 Panel 3',$,$,#376,#387,$,.CURTAIN_PANEL.);
#387=IFCPRODUCTDEFINITIONSHAPE($,$,(#386));
#386=IFCSHAPEREPRESENTATION(#16,'Body','SweptSolid',(#385));
#385=IFCEXTRUDEDAREASOLID(#379,#383,#384,1.44);
#384=IFCDIRECTION((0.,0.,1.));
#383=IFCAXIS2PLACEMENT3D(#380,#381,#382);
#382=IFCDIRECTION((1.,0.,0.));
#381=IFCDIRECTION((0.,0.,1.));
#380=IFCCARTESIANPOINT((0.,0.,0.));
#379=IFCRECTANGLEPROFILEDEF(.AREA.,$,#378,1.44,0.03);
#378=IFCAXIS2PLACEMENT2D(#377,$);
#377=IFCCARTESIANPOINT((0.72,0.015));
#376=IFCLOCALPLACEMENT(#319,#375);
#375=IFCAXIS2PLACEMENT3D(#372,#373,#374);
#374=IFCDIRECTION((1.,0.,0.));
#373=IFCDIRECTION((0.,0.,1.));
#372=IFCCARTESIANPOINT((1.53,0.,1.53));
#371=IFCPLATE('2qQU16p2fSxPS9JBXA7YGt',#6,'Curtain Wall 1 Panel 2',$,$,#359,#370,$,.CURTAIN_PANEL.);
#370=IFCPRODUCTDEFINITIONSHAPE($,$,(#369));
#369=IFCSHAPEREPRESENTATION(#16,'Body','SweptSolid',(#368));
#368=IFCEXTRUDEDAREASOLID(#362,#366,#367,1.44);
#367=IFCDIRECTION((0.,0.,1.));
#366=IFCAXIS2PLACEMENT3D(#363,#364,#365);
#365=IFCDIRECTION((1.,0.,0.));
#364=IFCDIRECTION((0.,0.,1.));
#363=IFCCARTESIANPOINT((0.,0.,0.));
#362=IFCRECTANGLEPROFILEDEF(.AREA.,$,#361,1.44,0.03);
#361=IFCAXIS2PLACEMENT2D(#360,$);
#360=IFCCARTESIANPOINT((0.72,0.015));
#359=IFCLOCALPLACEMENT(#319,#358);
#358=IFCAXIS2PLACEMENT3D(#355,#356,#357);
#357=IFCDIRECTION((1.,0.,0.));
#356=IFCDIRECTION((0.,0.,1.));
#355=IFCCARTESIANPOINT((1.53,0.,0.03));
#354=IFCPLATE('2pQTwpoIfOD9e9KN5B7YNA',#6,'Curtain Wall 1 Panel 1',$,$,#342,#353,$,.CURTAIN_PANEL.);
#353=IFCPRODUCTDEFINITIONSHAPE($,$,(#352));
#352=IFCSHAPEREPRESENTATION(#16,'Body','SweptSolid',(#351));
#351=IFCEXTRUDEDAREASOLID(#345,#349,#350,1.44);
#350=IFCDIRECTION((0.,0.,1.));
#349=IFCAXIS2PLACEMENT3D(#346,#347,#348);
#348=IFCDIRECTION((1.,0.,0.));
#347=IFCDIRECTION((0.,0.,1.));
#346=IFCCARTESIANPOINT((0.,0.,0.));
#345=IFCRECTANGLEPROFILEDEF(.AREA.,$,#344,1.44,0.03);
#344=IFCAXIS2PLACEMENT2D(#343,$);
#343=IFCCARTESIANPOINT((0.72,0.015));
#342=IFCLOCALPLACEMENT(#319,#341);
#341=IFCAXIS2PLACEMENT3D(#338,#339,#340);
#340=IFCDIRECTION((1.,0.,0.));
#339=IFCDIRECTION((0.,0.,1.));
#338=IFCCARTESIANPOINT((0.03,0.,1.53));
#337=IFCPLATE('2oQTqWoYfPnva9JzvC7YTT',#6,'Curtain Wall 1 Panel 0',$,$,#325,#336,$,.CURTAIN_PANEL.);
#336=IFCPRODUCTDEFINITIONSHAPE($,$,(#335));
#335=IFCSHAPEREPRESENTATION(#16,'Body','SweptSolid',(#334));
#334=IFCEXTRUDEDAREASOLID(#328,#332,#333,1.44);
#333=IFCDIRECTION((0.,0.,1.));
#332=IFCAXIS2PLACEMENT3D(#329,#330,#331);
#331=IFCDIRECTION((1.,0.,0.));
#330=IFCDIRECTION((0.,0.,1.));
#329=IFCCARTESIANPOINT((0.,0.,0.));
#328=IFCRECTANGLEPROFILEDEF(.AREA.,$,#327,1.44,0.03);
#327=IFCAXIS2PLACEMENT2D(#326,$);
#326=IFCCARTESIANPOINT((0.72,0.015));
#325=IFCLOCALPLACEMENT(#319,#324);
#324=IFCAXIS2PLACEMENT3D(#321,#322,#323);
#323=IFCDIRECTION((1.,0.,0.));
#322=IFCDIRECTION((0.,0.,1.));
#321=IFCCARTESIANPOINT((0.03,0.,0.03));
#320=IFCCURTAINWALL('0U5L9iy8zKywjb_X8ThUv1',#6,'Curtain Wall 1',$,$,#319,$,$,.NOTDEFINED.);
#319=IFCLOCALPLACEMENT(#36,#318);
#318=IFCAXIS2PLACEMENT3D(#315,#316,#317);
#317=IFCDIRECTION((1.,0.,0.));
#316=IFCDIRECTION((0.,0.,1.));
#315=IFCCARTESIANPOINT((0.,0.,0.));
#314=IFCRELDEFINESBYPROPERTIES('0UPZoJjfTOphE8z2KOt9ZO',#6,$,$,(#306),#313);
#313=IFCELEMENTQUANTITY('0ZPaHokPTTXwo8wI0VtAFT',#6,'Qto_RoofBaseQuantities',$,'BaseQuantities',(#310,#311,#312));
#312=IFCQUANTITYAREA('ProjectedArea',$,$,4.,$);
#311=IFCQUANTITYAREA('NetArea',$,$,4.,$);
#310=IFCQUANTITYAREA('GrossArea',$,$,4.,$);
#309=IFCRELDEFINESBYPROPERTIES('0bP0a1fvbVoBA6i$kPtwA2',#6,$,$,(#306),#308);
#308=IFCPROPERTYSET('0aP0Tkg9bHMx66icYQtwGL',#6,'Pset_RoofCommon',$,(#307));
#307=IFCPROPERTYSINGLEVALUE('IsExternal',$,IFCBOOLEAN(.T.),$);
#306=IFCROOF('2XOcKhunfHlhCMZUNu3y1O',#6,'Roof 3',$,$,#301,#305,$,$);
#305=IFCPRODUCTDEFINITIONSHAPE($,$,(#304));
#304=IFCSHAPEREPRESENTATION(#16,'Body','Tessellation',(#303));
#303=IFCTRIANGULATEDFACESET(#302,$,.T.,((3,1,2),(5,6,4),(9,8,7),(10,11,12),(13,14,15),(18,17,16),(19,21,20),(22,24,23),(26,25,27),(28,29,30),(32,33,31),(35,34,36),(38,39,37),(42,40,41),(45,44,43),(47,48,46),(49,50,51),(53,52,54),(57,55,56),(59,58,60),(61,63,62),(66,65,64),(67,69,68),(71,70,72),(73,75,74),(77,78,76),(80,79,81),(82,83,84),(87,86,85),(90,89,88),(92,91,93),(94,95,96),(98,97,99),(100,102,101),(104,103,105),(106,108,107),(110,111,109),(112,114,113),(115,116,117),(118,119,120),(121,123,122),(125,124,126),(127,129,128),(131,130,132),(134,135,133),(137,138,136),(140,141,139),(143,142,144),(147,146,145),(149,148,150),(152,151,153),(155,156,154),(158,157,159),(160,161,162),(164,163,165),(167,168,166),(171,169,170),(173,172,174),(176,177,175),(179,178,180),(182,181,183),(184,186,185),(187,188,189),(190,192,191),(194,193,195),(198,197,196),(200,199,201),(204,203,202),(206,205,207),(210,209,208),(212,213,211),(216,214,215),(218,217,219),(221,220,222),(225,223,224),(227,228,226),(230,229,231),(233,232,234),(235,237,236),(240,239,238),(242,241,243),(245,244,246),(249,248,247),(252,251,250),(254,253,255),(257,256,258),(261,260,259),(262,264,263),(266,265,267),(270,269,268),(271,272,273),(275,274,276),(279,278,277),(280,281,282),(284,285,283),(287,286,288),(290,291,289),(292,293,294),(297,296,295),(300,299,298),(301,303,302),(304,306,305),(309,307,308),(310,311,312),(314,313,315),(318,316,317),(321,320,319),(324,323,322),(327,325,326),(329,330,328),(331,333,332),(336,335,334),(338,339,337),(341,340,342),(344,343,345),(346,348,347),(350,351,349),(353,352,354),(357,356,355),(358,359,360),(361,363,362),(365,364,366),(367,369,368),(370,371,372),(373,375,374),(378,377,376),(379,381,380),(382,383,384),(385,387,386),(389,388,390),(393,392,391),(396,395,394),(398,397,399),(402,401,400),(403,405,404),(407,406,408),(410,409,411),(412,414,413),(416,415,417),(418,420,419),(421,423,422),(424,426,425),(427,429,428),(431,430,432),(433,435,434),(436,437,438),(441,440,439),(442,443,444),(446,445,447),(448,450,449),(453,452,451),(456,455,454),(457,459,458),(461,460,462),(464,463,465),(468,467,466),(470,469,471),(473,474,472),(475,477,476),(480,479,478),(482,481,483),(485,484,486),(488,487,489),(492,491,490),(495,494,493),(496,497,498),(500,499,501),(504,502,503),(507,506,505),(509,508,510),(512,511,513),(516,515,514),(517,519,518),(521,520,522),(524,523,525),(526,528,527),(530,529,531),(534,533,532),(535,537,536),(539,540,538),(541,543,542),(545,544,546),(549,548,547),(550,552,551),(554,553,555),(558,556,557),(559,561,560),(563,562,564),(566,565,567),(568,570,569)),$);
#302=IFCCARTESIANPOINTLIST3D(((1.,1.,1.),(0.8871834106445312,1.421037353515625,0.9),(0.7820550537109375,1.37749169921875,0.9),(0.8871834106445312,1.421037353515625,0.9),(0.6429285888671875,1.6184658203125,0.7),(0.7820550537109375,1.37749169921875,0.9),(0.7820550537109375,1.37749169921875,0.9),(1.,1.,1.),(0.691779296875,1.308220703125,0.9),(1.,1.,1.),(0.62250830078125,1.2179449462890626,0.9),(0.5789627075195313,1.112816650390625,0.9),(0.62250830078125,1.2179449462890626,0.9),(0.3815341491699219,1.3570714111328126,0.7),(0.5789627075195313,1.112816650390625,0.9),(0.62250830078125,1.2179449462890626,0.9),(0.3815341491699219,1.3570714111328126,0.7),(0.691779296875,1.308220703125,0.9),(1.,1.,1.),(0.62250830078125,1.2179449462890626,0.9),(0.691779296875,1.308220703125,0.9),(0.6429285888671875,1.6184658203125,0.7),(0.7820550537109375,1.37749169921875,0.9),(0.691779296875,1.308220703125,0.9),(0.5789627075195313,1.112816650390625,0.9),(1.,1.,1.),(0.564110107421875,1.,0.9),(1.2372115478515624,0.11471435546875,0.4),(1.3570714111328126,0.3815341491699219,0.7),(1.184833740234375,0.31019097900390624,0.7),(1.3570714111328126,0.3815341491699219,0.7),(1.2179449462890626,0.62250830078125,0.9),(1.184833740234375,0.31019097900390624,0.7),(1.184833740234375,0.31019097900390624,0.7),(1.2372115478515624,0.11471435546875,0.4),(1.,0.08348486328125,0.4),(1.421037353515625,0.8871834106445312,0.9),(1.714142822265625,1.,0.7),(1.435889892578125,1.,0.9),(1.,1.,1.),(1.421037353515625,0.8871834106445312,0.9),(1.435889892578125,1.,0.9),(1.714142822265625,1.,0.7),(1.435889892578125,1.,0.9),(1.6898089599609376,1.184833740234375,0.7),(0.6429285888671875,0.3815341491699219,0.7),(0.7627884521484375,0.11471435546875,0.4),(0.815166259765625,0.31019097900390624,0.7),(0.8871834106445312,0.5789627075195313,0.9),(0.6429285888671875,0.3815341491699219,0.7),(0.815166259765625,0.31019097900390624,0.7),(0.6429285888671875,0.3815341491699219,0.7),(0.7627884521484375,0.11471435546875,0.4),(0.541742431640625,0.20627461242675782,0.4),(1.96592578125,1.258819091796875,0.),(0.03407417297363281,0.7411809692382813,0.),(0.7411809692382813,1.96592578125,0.),(1.96592578125,1.258819091796875,0.),(0.03407417297363281,0.7411809692382813,0.),(1.258819091796875,0.03407417297363281,0.),(0.7411809692382813,1.96592578125,0.),(1.96592578125,1.258819091796875,0.),(1.5,1.866025390625,0.),(0.03407417297363281,0.7411809692382813,0.),(0.7411809692382813,1.96592578125,0.),(0.13397459411621093,1.5,0.),(1.96592578125,1.258819091796875,0.),(1.258819091796875,0.03407417297363281,0.),(1.866025390625,0.5,0.),(1.258819091796875,0.03407417297363281,0.),(0.03407417297363281,0.7411809692382813,0.),(0.5,0.13397459411621093,0.),(0.7411809692382813,1.96592578125,0.),(1.5,1.866025390625,0.),(1.258819091796875,1.96592578125,0.),(1.2372115478515624,1.88528564453125,0.4),(1.5,1.866025390625,0.),(1.258819091796875,1.96592578125,0.),(1.5,1.866025390625,0.),(1.96592578125,1.258819091796875,0.),(1.866025390625,1.5,0.),(1.793725341796875,1.458257568359375,0.4),(1.96592578125,1.258819091796875,0.),(1.866025390625,1.5,0.),(1.866025390625,1.5,0.),(1.793725341796875,1.458257568359375,0.4),(1.6480740966796874,1.6480740966796874,0.4),(1.6480740966796874,1.6480740966796874,0.4),(1.793725341796875,1.458257568359375,0.4),(1.6184658203125,1.3570714111328126,0.7),(0.03407417297363281,0.7411809692382813,0.),(0.13397459411621093,1.5,0.),(0.03407417297363281,1.258819091796875,0.),(0.20627461242675782,1.458257568359375,0.4),(0.13397459411621093,1.5,0.),(0.03407417297363281,1.258819091796875,0.),(0.13397459411621093,1.5,0.),(0.7411809692382813,1.96592578125,0.),(0.2928932189941406,1.7071068115234376,0.),(0.20627461242675782,1.458257568359375,0.4),(0.13397459411621093,1.5,0.),(0.2928932189941406,1.7071068115234376,0.),(1.258819091796875,1.96592578125,0.),(1.2372115478515624,1.88528564453125,0.4),(1.,2.,0.),(0.7411809692382813,1.96592578125,0.),(1.258819091796875,1.96592578125,0.),(1.,2.,0.),(0.7411809692382813,1.96592578125,0.),(0.7627884521484375,1.88528564453125,0.4),(1.,2.,0.),(1.793725341796875,1.458257568359375,0.4),(1.96592578125,1.258819091796875,0.),(1.88528564453125,1.2372115478515624,0.4),(1.91651513671875,1.,0.4),(1.96592578125,1.258819091796875,0.),(1.88528564453125,1.2372115478515624,0.4),(1.714142822265625,1.,0.7),(1.91651513671875,1.,0.4),(1.88528564453125,1.2372115478515624,0.4),(1.6184658203125,1.3570714111328126,0.7),(1.793725341796875,1.458257568359375,0.4),(1.88528564453125,1.2372115478515624,0.4),(1.96592578125,1.258819091796875,0.),(1.866025390625,0.5,0.),(2.,1.,0.),(1.91651513671875,1.,0.4),(1.96592578125,1.258819091796875,0.),(2.,1.,0.),(1.2372115478515624,1.88528564453125,0.4),(1.5,1.866025390625,0.),(1.458257568359375,1.793725341796875,0.4),(1.6480740966796874,1.6480740966796874,0.4),(1.5,1.866025390625,0.),(1.458257568359375,1.793725341796875,0.4),(1.2372115478515624,1.88528564453125,0.4),(1.3570714111328126,1.6184658203125,0.7),(1.458257568359375,1.793725341796875,0.4),(1.3570714111328126,1.6184658203125,0.7),(1.6480740966796874,1.6480740966796874,0.4),(1.458257568359375,1.793725341796875,0.4),(1.5,1.866025390625,0.),(1.866025390625,1.5,0.),(1.7071068115234376,1.7071068115234376,0.),(1.6480740966796874,1.6480740966796874,0.4),(1.5,1.866025390625,0.),(1.7071068115234376,1.7071068115234376,0.),(1.866025390625,1.5,0.),(1.6480740966796874,1.6480740966796874,0.4),(1.7071068115234376,1.7071068115234376,0.),(1.258819091796875,0.03407417297363281,0.),(0.5,0.13397459411621093,0.),(0.7411809692382813,0.03407417297363281,0.),(0.7627884521484375,0.11471435546875,0.4),(0.5,0.13397459411621093,0.),(0.7411809692382813,0.03407417297363281,0.),(0.5,0.13397459411621093,0.),(0.03407417297363281,0.7411809692382813,0.),(0.13397459411621093,0.5,0.),(0.11471435546875,0.7627884521484375,0.4),(0.03407417297363281,0.7411809692382813,0.),(0.13397459411621093,0.5,0.),(0.7627884521484375,0.11471435546875,0.4),(0.5,0.13397459411621093,0.),(0.541742431640625,0.20627461242675782,0.4),(0.3519259338378906,0.3519259338378906,0.4),(0.5,0.13397459411621093,0.),(0.541742431640625,0.20627461242675782,0.4),(0.6429285888671875,0.3815341491699219,0.7),(0.3519259338378906,0.3519259338378906,0.4),(0.541742431640625,0.20627461242675782,0.4),(1.866025390625,0.5,0.),(1.258819091796875,0.03407417297363281,0.),(1.5,0.13397459411621093,0.),(1.2372115478515624,0.11471435546875,0.4),(1.258819091796875,0.03407417297363281,0.),(1.5,0.13397459411621093,0.),(0.11471435546875,0.7627884521484375,0.4),(0.03407417297363281,0.7411809692382813,0.),(0.,1.,0.),(0.03407417297363281,0.7411809692382813,0.),(0.03407417297363281,1.258819091796875,0.),(0.,1.,0.),(0.20627461242675782,1.458257568359375,0.4),(0.2928932189941406,1.7071068115234376,0.),(0.3519259338378906,1.6480740966796874,0.4),(0.20627461242675782,1.458257568359375,0.4),(0.3815341491699219,1.3570714111328126,0.7),(0.3519259338378906,1.6480740966796874,0.4),(0.7411809692382813,1.96592578125,0.),(0.7627884521484375,1.88528564453125,0.4),(0.5,1.866025390625,0.),(0.2928932189941406,1.7071068115234376,0.),(0.7411809692382813,1.96592578125,0.),(0.5,1.866025390625,0.),(0.3519259338378906,1.6480740966796874,0.4),(0.2928932189941406,1.7071068115234376,0.),(0.5,1.866025390625,0.),(1.,2.,0.),(1.2372115478515624,1.88528564453125,0.4),(1.,1.91651513671875,0.4),(0.7627884521484375,1.88528564453125,0.4),(1.,2.,0.),(1.,1.91651513671875,0.4),(1.88528564453125,1.2372115478515624,0.4),(1.714142822265625,1.,0.7),(1.6898089599609376,1.184833740234375,0.7),(1.6184658203125,1.3570714111328126,0.7),(1.88528564453125,1.2372115478515624,0.4),(1.6898089599609376,1.184833740234375,0.7),(1.2179449462890626,1.37749169921875,0.9),(1.3570714111328126,1.6184658203125,0.7),(1.112816650390625,1.421037353515625,0.9),(1.,1.,1.),(1.2179449462890626,1.37749169921875,0.9),(1.112816650390625,1.421037353515625,0.9),(1.2179449462890626,1.37749169921875,0.9),(1.3570714111328126,1.6184658203125,0.7),(1.308220703125,1.308220703125,0.9),(1.,1.,1.),(1.2179449462890626,1.37749169921875,0.9),(1.308220703125,1.308220703125,0.9),(1.,1.,1.),(1.37749169921875,1.2179449462890626,0.9),(1.308220703125,1.308220703125,0.9),(1.37749169921875,1.2179449462890626,0.9),(1.6184658203125,1.3570714111328126,0.7),(1.308220703125,1.308220703125,0.9),(1.37749169921875,1.2179449462890626,0.9),(1.6184658203125,1.3570714111328126,0.7),(1.6898089599609376,1.184833740234375,0.7),(2.,1.,0.),(1.866025390625,0.5,0.),(1.96592578125,0.7411809692382813,0.),(1.91651513671875,1.,0.4),(2.,1.,0.),(1.96592578125,0.7411809692382813,0.),(1.3570714111328126,1.6184658203125,0.7),(1.6480740966796874,1.6480740966796874,0.4),(1.5049752197265625,1.5049752197265625,0.7),(1.6480740966796874,1.6480740966796874,0.4),(1.6184658203125,1.3570714111328126,0.7),(1.5049752197265625,1.5049752197265625,0.7),(1.308220703125,1.308220703125,0.9),(1.3570714111328126,1.6184658203125,0.7),(1.5049752197265625,1.5049752197265625,0.7),(1.6184658203125,1.3570714111328126,0.7),(1.308220703125,1.308220703125,0.9),(1.5049752197265625,1.5049752197265625,0.7),(0.7411809692382813,0.03407417297363281,0.),(0.7627884521484375,0.11471435546875,0.4),(1.,0.,0.),(1.258819091796875,0.03407417297363281,0.),(0.7411809692382813,0.03407417297363281,0.),(1.,0.,0.),(1.2372115478515624,0.11471435546875,0.4),(1.258819091796875,0.03407417297363281,0.),(1.,0.,0.),(0.7627884521484375,0.11471435546875,0.4),(0.815166259765625,0.31019097900390624,0.7),(1.,0.08348486328125,0.4),(1.,0.,0.),(0.7627884521484375,0.11471435546875,0.4),(1.,0.08348486328125,0.4),(1.2372115478515624,0.11471435546875,0.4),(1.,0.,0.),(1.,0.08348486328125,0.4),(0.3519259338378906,0.3519259338378906,0.4),(0.5,0.13397459411621093,0.),(0.2928932189941406,0.2928932189941406,0.),(0.3519259338378906,0.3519259338378906,0.4),(0.13397459411621093,0.5,0.),(0.2928932189941406,0.2928932189941406,0.),(0.5,0.13397459411621093,0.),(0.13397459411621093,0.5,0.),(0.2928932189941406,0.2928932189941406,0.),(0.8871834106445312,0.5789627075195313,0.9),(0.6429285888671875,0.3815341491699219,0.7),(0.7820550537109375,0.62250830078125,0.9),(1.,1.,1.),(0.5789627075195313,0.8871834106445312,0.9),(0.62250830078125,0.7820550537109375,0.9),(0.691779296875,0.691779296875,0.9),(1.,1.,1.),(0.62250830078125,0.7820550537109375,0.9),(0.691779296875,0.691779296875,0.9),(1.,1.,1.),(0.7820550537109375,0.62250830078125,0.9),(0.8871834106445312,0.5789627075195313,0.9),(1.,1.,1.),(0.7820550537109375,0.62250830078125,0.9),(0.691779296875,0.691779296875,0.9),(0.6429285888671875,0.3815341491699219,0.7),(0.7820550537109375,0.62250830078125,0.9),(0.03407417297363281,1.258819091796875,0.),(0.20627461242675782,1.458257568359375,0.4),(0.11471435546875,1.2372115478515624,0.4),(0.20627461242675782,1.458257568359375,0.4),(0.3815341491699219,1.3570714111328126,0.7),(0.11471435546875,1.2372115478515624,0.4),(0.,1.,0.),(0.03407417297363281,1.258819091796875,0.),(0.11471435546875,1.2372115478515624,0.4),(1.,1.,1.),(0.5789627075195313,0.8871834106445312,0.9),(0.564110107421875,1.,0.9),(0.2858571472167969,1.,0.7),(0.5789627075195313,0.8871834106445312,0.9),(0.564110107421875,1.,0.9),(0.5789627075195313,1.112816650390625,0.9),(0.2858571472167969,1.,0.7),(0.564110107421875,1.,0.9),(1.421037353515625,0.8871834106445312,0.9),(1.714142822265625,1.,0.7),(1.6898089599609376,0.815166259765625,0.7),(1.421037353515625,0.8871834106445312,0.9),(1.6184658203125,0.6429285888671875,0.7),(1.6898089599609376,0.815166259765625,0.7),(1.714142822265625,1.,0.7),(1.91651513671875,1.,0.4),(1.6898089599609376,0.815166259765625,0.7),(1.96592578125,0.7411809692382813,0.),(1.866025390625,0.5,0.),(1.793725341796875,0.541742431640625,0.4),(1.6480740966796874,0.3519259338378906,0.4),(1.866025390625,0.5,0.),(1.793725341796875,0.541742431640625,0.4),(1.6184658203125,0.6429285888671875,0.7),(1.6480740966796874,0.3519259338378906,0.4),(1.793725341796875,0.541742431640625,0.4),(1.6184658203125,0.6429285888671875,0.7),(1.6898089599609376,0.815166259765625,0.7),(1.793725341796875,0.541742431640625,0.4),(1.2179449462890626,0.62250830078125,0.9),(1.184833740234375,0.31019097900390624,0.7),(1.112816650390625,0.5789627075195313,0.9),(1.2179449462890626,0.62250830078125,0.9),(1.,1.,1.),(1.112816650390625,0.5789627075195313,0.9),(1.2179449462890626,0.62250830078125,0.9),(1.,1.,1.),(1.308220703125,0.691779296875,0.9),(1.3570714111328126,0.3815341491699219,0.7),(1.2179449462890626,0.62250830078125,0.9),(1.308220703125,0.691779296875,0.9),(1.6480740966796874,0.3519259338378906,0.4),(1.866025390625,0.5,0.),(1.7071068115234376,0.2928932189941406,0.),(1.6480740966796874,0.3519259338378906,0.4),(1.5,0.13397459411621093,0.),(1.7071068115234376,0.2928932189941406,0.),(1.866025390625,0.5,0.),(1.5,0.13397459411621093,0.),(1.7071068115234376,0.2928932189941406,0.),(1.2372115478515624,0.11471435546875,0.4),(1.3570714111328126,0.3815341491699219,0.7),(1.458257568359375,0.20627461242675782,0.4),(1.6480740966796874,0.3519259338378906,0.4),(1.3570714111328126,0.3815341491699219,0.7),(1.458257568359375,0.20627461242675782,0.4),(1.5,0.13397459411621093,0.),(1.2372115478515624,0.11471435546875,0.4),(1.458257568359375,0.20627461242675782,0.4),(1.6480740966796874,0.3519259338378906,0.4),(1.5,0.13397459411621093,0.),(1.458257568359375,0.20627461242675782,0.4),(0.3815341491699219,1.3570714111328126,0.7),(0.3519259338378906,1.6480740966796874,0.4),(0.49502474975585936,1.5049752197265625,0.7),(0.6429285888671875,1.6184658203125,0.7),(0.3519259338378906,1.6480740966796874,0.4),(0.49502474975585936,1.5049752197265625,0.7),(0.691779296875,1.308220703125,0.9),(0.3815341491699219,1.3570714111328126,0.7),(0.49502474975585936,1.5049752197265625,0.7),(0.6429285888671875,1.6184658203125,0.7),(0.691779296875,1.308220703125,0.9),(0.49502474975585936,1.5049752197265625,0.7),(0.6429285888671875,1.6184658203125,0.7),(0.3519259338378906,1.6480740966796874,0.4),(0.541742431640625,1.793725341796875,0.4),(0.6429285888671875,1.6184658203125,0.7),(0.7627884521484375,1.88528564453125,0.4),(0.541742431640625,1.793725341796875,0.4),(0.5,1.866025390625,0.),(0.7627884521484375,1.88528564453125,0.4),(0.541742431640625,1.793725341796875,0.4),(0.3519259338378906,1.6480740966796874,0.4),(0.5,1.866025390625,0.),(0.541742431640625,1.793725341796875,0.4),(1.,1.91651513671875,0.4),(1.2372115478515624,1.88528564453125,0.4),(1.,1.714142822265625,0.7),(0.7627884521484375,1.88528564453125,0.4),(1.,1.91651513671875,0.4),(1.,1.714142822265625,0.7),(1.,1.,1.),(1.37749169921875,1.2179449462890626,0.9),(1.421037353515625,1.112816650390625,0.9),(1.435889892578125,1.,0.9),(1.,1.,1.),(1.421037353515625,1.112816650390625,0.9),(1.6898089599609376,1.184833740234375,0.7),(1.435889892578125,1.,0.9),(1.421037353515625,1.112816650390625,0.9),(1.37749169921875,1.2179449462890626,0.9),(1.6898089599609376,1.184833740234375,0.7),(1.421037353515625,1.112816650390625,0.9),(0.815166259765625,0.31019097900390624,0.7),(0.8871834106445312,0.5789627075195313,0.9),(1.,0.2858571472167969,0.7),(1.,0.08348486328125,0.4),(0.815166259765625,0.31019097900390624,0.7),(1.,0.2858571472167969,0.7),(1.184833740234375,0.31019097900390624,0.7),(1.,0.08348486328125,0.4),(1.,0.2858571472167969,0.7),(1.112816650390625,0.5789627075195313,0.9),(1.184833740234375,0.31019097900390624,0.7),(1.,0.2858571472167969,0.7),(0.62250830078125,0.7820550537109375,0.9),(0.691779296875,0.691779296875,0.9),(0.3815341491699219,0.6429285888671875,0.7),(0.5789627075195313,0.8871834106445312,0.9),(0.62250830078125,0.7820550537109375,0.9),(0.3815341491699219,0.6429285888671875,0.7),(0.5789627075195313,1.112816650390625,0.9),(0.2858571472167969,1.,0.7),(0.31019097900390624,1.184833740234375,0.7),(0.3815341491699219,1.3570714111328126,0.7),(0.5789627075195313,1.112816650390625,0.9),(0.31019097900390624,1.184833740234375,0.7),(0.11471435546875,1.2372115478515624,0.4),(0.3815341491699219,1.3570714111328126,0.7),(0.31019097900390624,1.184833740234375,0.7),(0.11471435546875,1.2372115478515624,0.4),(0.2858571472167969,1.,0.7),(0.31019097900390624,1.184833740234375,0.7),(0.11471435546875,1.2372115478515624,0.4),(0.2858571472167969,1.,0.7),(0.08348486328125,1.,0.4),(0.11471435546875,0.7627884521484375,0.4),(0.2858571472167969,1.,0.7),(0.08348486328125,1.,0.4),(0.11471435546875,0.7627884521484375,0.4),(0.,1.,0.),(0.08348486328125,1.,0.4),(0.,1.,0.),(0.11471435546875,1.2372115478515624,0.4),(0.08348486328125,1.,0.4),(1.91651513671875,1.,0.4),(1.96592578125,0.7411809692382813,0.),(1.88528564453125,0.7627884521484375,0.4),(1.96592578125,0.7411809692382813,0.),(1.793725341796875,0.541742431640625,0.4),(1.88528564453125,0.7627884521484375,0.4),(1.6898089599609376,0.815166259765625,0.7),(1.91651513671875,1.,0.4),(1.88528564453125,0.7627884521484375,0.4),(1.793725341796875,0.541742431640625,0.4),(1.6898089599609376,0.815166259765625,0.7),(1.88528564453125,0.7627884521484375,0.4),(1.,1.,1.),(1.421037353515625,0.8871834106445312,0.9),(1.37749169921875,0.7820550537109375,0.9),(1.308220703125,0.691779296875,0.9),(1.,1.,1.),(1.37749169921875,0.7820550537109375,0.9),(1.421037353515625,0.8871834106445312,0.9),(1.6184658203125,0.6429285888671875,0.7),(1.37749169921875,0.7820550537109375,0.9),(1.308220703125,0.691779296875,0.9),(1.6184658203125,0.6429285888671875,0.7),(1.37749169921875,0.7820550537109375,0.9),(1.6480740966796874,0.3519259338378906,0.4),(1.3570714111328126,0.3815341491699219,0.7),(1.5049752197265625,0.49502474975585936,0.7),(1.6184658203125,0.6429285888671875,0.7),(1.6480740966796874,0.3519259338378906,0.4),(1.5049752197265625,0.49502474975585936,0.7),(1.308220703125,0.691779296875,0.9),(1.6184658203125,0.6429285888671875,0.7),(1.5049752197265625,0.49502474975585936,0.7),(1.3570714111328126,0.3815341491699219,0.7),(1.308220703125,0.691779296875,0.9),(1.5049752197265625,0.49502474975585936,0.7),(1.2372115478515624,1.88528564453125,0.4),(1.3570714111328126,1.6184658203125,0.7),(1.184833740234375,1.6898089599609376,0.7),(1.,1.714142822265625,0.7),(1.2372115478515624,1.88528564453125,0.4),(1.184833740234375,1.6898089599609376,0.7),(1.3570714111328126,1.6184658203125,0.7),(1.112816650390625,1.421037353515625,0.9),(1.184833740234375,1.6898089599609376,0.7),(1.,1.714142822265625,0.7),(1.112816650390625,1.421037353515625,0.9),(1.184833740234375,1.6898089599609376,0.7),(0.8871834106445312,1.421037353515625,0.9),(0.6429285888671875,1.6184658203125,0.7),(0.815166259765625,1.6898089599609376,0.7),(0.8871834106445312,1.421037353515625,0.9),(1.,1.714142822265625,0.7),(0.815166259765625,1.6898089599609376,0.7),(0.6429285888671875,1.6184658203125,0.7),(0.7627884521484375,1.88528564453125,0.4),(0.815166259765625,1.6898089599609376,0.7),(0.7627884521484375,1.88528564453125,0.4),(1.,1.714142822265625,0.7),(0.815166259765625,1.6898089599609376,0.7),(1.,1.,1.),(0.8871834106445312,1.421037353515625,0.9),(1.,1.435889892578125,0.9),(1.112816650390625,1.421037353515625,0.9),(1.,1.,1.),(1.,1.435889892578125,0.9),(1.,1.714142822265625,0.7),(1.112816650390625,1.421037353515625,0.9),(1.,1.435889892578125,0.9),(0.8871834106445312,1.421037353515625,0.9),(1.,1.714142822265625,0.7),(1.,1.435889892578125,0.9),(0.8871834106445312,0.5789627075195313,0.9),(1.,1.,1.),(1.,0.564110107421875,0.9),(1.,1.,1.),(1.112816650390625,0.5789627075195313,0.9),(1.,0.564110107421875,0.9),(1.,0.2858571472167969,0.7),(0.8871834106445312,0.5789627075195313,0.9),(1.,0.564110107421875,0.9),(1.112816650390625,0.5789627075195313,0.9),(1.,0.2858571472167969,0.7),(1.,0.564110107421875,0.9),(0.6429285888671875,0.3815341491699219,0.7),(0.3519259338378906,0.3519259338378906,0.4),(0.49502474975585936,0.49502474975585936,0.7),(0.3815341491699219,0.6429285888671875,0.7),(0.3519259338378906,0.3519259338378906,0.4),(0.49502474975585936,0.49502474975585936,0.7),(0.691779296875,0.691779296875,0.9),(0.6429285888671875,0.3815341491699219,0.7),(0.49502474975585936,0.49502474975585936,0.7),(0.3815341491699219,0.6429285888671875,0.7),(0.691779296875,0.691779296875,0.9),(0.49502474975585936,0.49502474975585936,0.7),(0.13397459411621093,0.5,0.),(0.11471435546875,0.7627884521484375,0.4),(0.20627461242675782,0.541742431640625,0.4),(0.3519259338378906,0.3519259338378906,0.4),(0.13397459411621093,0.5,0.),(0.20627461242675782,0.541742431640625,0.4),(0.3815341491699219,0.6429285888671875,0.7),(0.3519259338378906,0.3519259338378906,0.4),(0.20627461242675782,0.541742431640625,0.4),(0.3815341491699219,0.6429285888671875,0.7),(0.11471435546875,0.7627884521484375,0.4),(0.20627461242675782,0.541742431640625,0.4),(0.11471435546875,0.7627884521484375,0.4),(0.2858571472167969,1.,0.7),(0.31019097900390624,0.815166259765625,0.7),(0.3815341491699219,0.6429285888671875,0.7),(0.11471435546875,0.7627884521484375,0.4),(0.31019097900390624,0.815166259765625,0.7),(0.2858571472167969,1.,0.7),(0.5789627075195313,0.8871834106445312,0.9),(0.31019097900390624,0.815166259765625,0.7),(0.5789627075195313,0.8871834106445312,0.9),(0.3815341491699219,0.6429285888671875,0.7),(0.31019097900390624,0.815166259765625,0.7)));
#301=IFCLOCALPLACEMENT(#36,#300);
#300=IFCAXIS2PLACEMENT3D(#297,#298,#299);
#299=IFCDIRECTION((1.,0.,0.));
#298=IFCDIRECTION((0.,0.,1.));
#297=IFCCARTESIANPOINT((3.5,2.,5.6));
#296=IFCRELDEFINESBYPROPERTIES('2AvO62EBDMlwriZ_WWNWg5',#6,$,$,(#288),#295);
#295=IFCELEMENTQUANTITY('29vN$lERDOKh1ibA4TNWNC',#6,'Qto_RoofBaseQuantities',$,'BaseQuantities',(#292,#293,#294));
#294=IFCQUANTITYAREA('ProjectedArea',$,$,27.,$);
#293=IFCQUANTITYAREA('NetArea',$,$,27.,$);
#292=IFCQUANTITYAREA('GrossArea',$,$,27.,$);
#291=IFCRELDEFINESBYPROPERTIES('25vNcZDRDI1hHickqPNV_0',#6,$,$,(#288),#290);
#290=IFCPROPERTYSET('24vNWGDhDJcRDicLeQNW4J',#6,'Pset_RoofCommon',$,(#289));
#289=IFCPROPERTYSINGLEVALUE('IsExternal',$,IFCBOOLEAN(.T.),$);
#288=IFCROOF('2VOc85tHfOJBKMaGls3xqo',#6,'Roof 2',$,$,#283,#287,$,$);
#287=IFCPRODUCTDEFINITIONSHAPE($,$,(#286));
#286=IFCSHAPEREPRESENTATION(#16,'Body','Tessellation',(#285));
#285=IFCTRIANGULATEDFACESET(#284,$,.T.,((2,3,1),(6,5,4),(7,8,9),(12,11,10),(15,14,13),(16,18,17),(19,21,20),(24,23,22)),$);
#284=IFCCARTESIANPOINTLIST3D(((0.,0.,0.),(4.5,6.,0.),(4.5,0.,0.),(4.5,0.,0.),(0.,0.,0.),(2.25,2.25,1.0491922607421875),(4.5,6.,0.),(2.25,2.25,1.0491922607421875),(4.5,0.,0.),(2.25,2.25,1.0491922607421875),(0.,0.,0.),(0.,6.,0.),(0.,0.,0.),(4.5,6.,0.),(0.,6.,0.),(4.5,6.,0.),(2.25,2.25,1.0491922607421875),(2.25,3.75,1.0491922607421875),(0.,6.,0.),(4.5,6.,0.),(2.25,3.75,1.0491922607421875),(2.25,2.25,1.0491922607421875),(0.,6.,0.),(2.25,3.75,1.0491922607421875)));
#283=IFCLOCALPLACEMENT(#36,#282);
#282=IFCAXIS2PLACEMENT3D(#279,#280,#281);
#281=IFCDIRECTION((1.,0.,0.));
#280=IFCDIRECTION((0.,0.,1.));
#279=IFCCARTESIANPOINT((4.5,0.,3.));
#278=IFCRELDEFINESBYPROPERTIES('2H21qsGjPOlwTTU_mkJnO5',#6,$,$,(#270),#277);
#277=IFCELEMENTQUANTITY('2S22w7HzPGdgvTXl4lJnUO',#6,'Qto_RoofBaseQuantities',$,'BaseQuantities',(#274,#275,#276));
#276=IFCQUANTITYAREA('ProjectedArea',$,$,27.,$);
#275=IFCQUANTITYAREA('NetArea',$,$,27.,$);
#274=IFCQUANTITYAREA('GrossArea',$,$,27.,$);
#273=IFCRELDEFINESBYPROPERTIES('2O22WxIzPMwh9TZJqpJnta',#6,$,$,(#270),#272);
#272=IFCPROPERTYSET('2N22QeJDPOVR5TYweqJnzt',#6,'Pset_RoofCommon',$,(#271));
#271=IFCPROPERTYSINGLEVALUE('IsExternal',$,IFCBOOLEAN(.T.),$);
#270=IFCROOF('2TObxVtnfRShSMb37q3xeC',#6,'Roof 1',$,$,#265,#269,$,$);
#269=IFCPRODUCTDEFINITIONSHAPE($,$,(#268));
#268=IFCSHAPEREPRESENTATION(#16,'Body','Tessellation',(#267));
#267=IFCTRIANGULATEDFACESET(#266,$,.T.,((1,4,2),(2,4,3),(5,8,6),(6,8,7),(10,9,11),(9,12,11),(14,13,15),(13,16,15),(17,20,18),(18,20,19),(22,24,23),(22,21,24),(21,25,24),(29,27,28),(26,27,29),(30,26,29)),$);
#266=IFCCARTESIANPOINTLIST3D(((0.,0.,0.),(4.5,0.,0.),(4.5,6.,0.),(0.,6.,0.),(0.,6.,0.),(4.5,6.,0.),(4.5,6.,0.2),(0.,6.,0.2),(0.,6.,0.2),(4.5,6.,0.2),(4.5,3.,1.93205078125),(0.,3.,1.93205078125),(0.,3.,1.93205078125),(4.5,3.,1.93205078125),(4.5,0.,0.2),(0.,0.,0.2),(0.,0.,0.2),(4.5,0.,0.2),(4.5,0.,0.),(0.,0.,0.),(0.,0.,0.),(0.,6.,0.),(0.,6.,0.2),(0.,3.,1.93205078125),(0.,0.,0.2),(4.5,0.,0.),(4.5,6.,0.),(4.5,6.,0.2),(4.5,3.,1.93205078125),(4.5,0.,0.2)));
#265=IFCLOCALPLACEMENT(#36,#264);
#264=IFCAXIS2PLACEMENT3D(#261,#262,#263);
#263=IFCDIRECTION((1.,0.,0.));
#262=IFCDIRECTION((0.,0.,1.));
#261=IFCCARTESIANPOINT((0.,0.,3.));
#260=IFCRELDEFINESBYPROPERTIES('2V2d7NHDHTJhLVq8qmJDgK',#6,$,$,(#251),#259);
#259=IFCELEMENTQUANTITY('0M0jvdnT5MogHYlU6fL5JK',#6,'Qto_ColumnBaseQuantities',$,'BaseQuantities',(#255,#256,#257,#258));
#258=IFCQUANTITYVOLUME('NetVolume',$,$,0.01888152220392306,$);
#257=IFCQUANTITYVOLUME('GrossVolume',$,$,0.01888152220392306,$);
#256=IFCQUANTITYAREA('CrossSectionArea',$,$,0.00629384073464102,$);
#255=IFCQUANTITYLENGTH('Length',$,$,3.,$);
#254=IFCRELDEFINESBYPROPERTIES('090idmkj5LUPzYjWAUL4E3',#6,$,$,(#251),#253);
#253=IFCPROPERTYSET('0G0jJrkz5N39fYhYEZL4jY',#6,'Pset_ColumnCommon',$,(#252));
#252=IFCPROPERTYSINGLEVALUE('LoadBearing',$,IFCBOOLEAN(.T.),$);
#251=IFCCOLUMN('3TRUchBPfOnh1Wc1aCT6Pq',#6,'Column 2',$,$,#239,#250,$,$);
#250=IFCPRODUCTDEFINITIONSHAPE($,$,(#249));
#249=IFCSHAPEREPRESENTATION(#16,'Body','SweptSolid',(#248));
#248=IFCEXTRUDEDAREASOLID(#242,#246,#247,3.);
#247=IFCDIRECTION((0.,0.,1.));
#246=IFCAXIS2PLACEMENT3D(#243,#244,#245);
#245=IFCDIRECTION((1.,0.,0.));
#244=IFCDIRECTION((0.,0.,1.));
#243=IFCCARTESIANPOINT((0.,0.,0.));
#242=IFCISHAPEPROFILEDEF(.AREA.,$,#241,0.2,0.2,0.008,0.012,0.01,$,$);
#241=IFCAXIS2PLACEMENT2D(#240,$);
#240=IFCCARTESIANPOINT((0.,0.));
#239=IFCLOCALPLACEMENT(#36,#238);
#238=IFCAXIS2PLACEMENT3D(#235,#236,#237);
#237=IFCDIRECTION((1.,0.,0.));
#236=IFCDIRECTION((0.,0.,1.));
#235=IFCCARTESIANPOINT((6.,3.,0.));
#234=IFCRELDEFINESBYPROPERTIES('2S$QA_jinH$vjJfIoYHJz5',#6,$,$,(#225),#233);
#233=IFCELEMENTQUANTITY('2V$QTtiynTHffJevcRHJH0',#6,'Qto_ColumnBaseQuantities',$,'BaseQuantities',(#229,#230,#231,#232));
#232=IFCQUANTITYVOLUME('NetVolume',$,$,0.21205750411731106,$);
#231=IFCQUANTITYVOLUME('GrossVolume',$,$,0.21205750411731106,$);
#230=IFCQUANTITYAREA('CrossSectionArea',$,$,0.07068583470577035,$);
#229=IFCQUANTITYLENGTH('Length',$,$,3.,$);
#228=IFCRELDEFINESBYPROPERTIES('0F09JBHCbVygLLyu6WGls8',#6,$,$,(#225),#227);
#227=IFCPROPERTYSET('0C090IHybKgvvLw7oVGllr',#6,'Pset_ColumnCommon',$,(#226));
#226=IFCPROPERTYSINGLEVALUE('LoadBearing',$,IFCBOOLEAN(.T.),$);
#225=IFCCOLUMN('1PSEjsCPXGUxnYwPI0SKjv',#6,'Column 1',$,$,#213,#224,$,$);
#224=IFCPRODUCTDEFINITIONSHAPE($,$,(#223));
#223=IFCSHAPEREPRESENTATION(#16,'Body','SweptSolid',(#222));
#222=IFCEXTRUDEDAREASOLID(#216,#220,#221,3.);
#221=IFCDIRECTION((0.,0.,1.));
#220=IFCAXIS2PLACEMENT3D(#217,#218,#219);
#219=IFCDIRECTION((1.,0.,0.));
#218=IFCDIRECTION((0.,0.,1.));
#217=IFCCARTESIANPOINT((0.,0.,0.));
#216=IFCCIRCLEPROFILEDEF(.AREA.,$,#215,0.15);
#215=IFCAXIS2PLACEMENT2D(#214,$);
#214=IFCCARTESIANPOINT((0.,0.));
#213=IFCLOCALPLACEMENT(#36,#212);
#212=IFCAXIS2PLACEMENT3D(#209,#210,#211);
#211=IFCDIRECTION((1.,0.,0.));
#210=IFCDIRECTION((0.,0.,1.));
#209=IFCCARTESIANPOINT((3.,3.,0.));
#208=IFCRELDEFINESBYPROPERTIES('2I_rHfECLVuA5RC_CiI5SQ',#6,$,$,(#199),#207);
#207=IFCELEMENTQUANTITY('2R_sAKHyLNVQvRI5eVI4AZ',#6,'Qto_BeamBaseQuantities',$,'BaseQuantities',(#203,#204,#205,#206));
#206=IFCQUANTITYVOLUME('NetVolume',$,$,0.02282235197364921,$);
#205=IFCQUANTITYVOLUME('GrossVolume',$,$,0.02282235197364921,$);
#204=IFCQUANTITYAREA('CrossSectionArea',$,$,0.00760745065788307,$);
#203=IFCQUANTITYLENGTH('Length',$,$,3.,$);
#202=IFCRELDEFINESBYPROPERTIES('2O_rtRGiLVdgjRGw4YI4TS',#6,$,$,(#199),#201);
#201=IFCPROPERTYSET('2P_rzkGSLU2wXRFkWbI4mL',#6,'Pset_BeamCommon',$,(#200));
#200=IFCPROPERTYSINGLEVALUE('LoadBearing',$,IFCBOOLEAN(.T.),$);
#199=IFCBEAM('3sE8tATXDG9ws6QTIbiElf',#6,'Beam 1',$,$,#187,#198,$,$);
#198=IFCPRODUCTDEFINITIONSHAPE($,$,(#197));
#197=IFCSHAPEREPRESENTATION(#16,'Body','SweptSolid',(#196));
#196=IFCEXTRUDEDAREASOLID(#190,#194,#195,3.);
#195=IFCDIRECTION((0.,0.,1.));
#194=IFCAXIS2PLACEMENT3D(#191,#192,#193);
#193=IFCDIRECTION((1.,0.,0.));
#192=IFCDIRECTION((0.,0.,1.));
#191=IFCCARTESIANPOINT((0.,0.,0.));
#190=IFCISHAPEPROFILEDEF(.AREA.,$,#189,0.18,0.36,0.0086,0.0128,0.012,$,$);
#189=IFCAXIS2PLACEMENT2D(#188,$);
#188=IFCCARTESIANPOINT((0.,0.));
#187=IFCLOCALPLACEMENT(#36,#186);
#186=IFCAXIS2PLACEMENT3D(#183,#184,#185);
#185=IFCDIRECTION((0.,1.,0.));
#184=IFCDIRECTION((1.,0.,0.));
#183=IFCCARTESIANPOINT((3.,3.,3.));
#182=IFCRELDEFINESBYPROPERTIES('1HIGJk2unK6vO64WWshopL',#6,$,$,(#168),#181);
#181=IFCELEMENTQUANTITY('1GIGDR38nLhfa65i4phoWS',#6,'Qto_SlabBaseQuantities',$,'BaseQuantities',(#172,#173,#174,#175,#176,#177,#178,#179,#180));
#180=IFCQUANTITYWEIGHT('GrossWeight',$,$,32400.,$);
#179=IFCQUANTITYVOLUME('NetVolume',$,$,13.5,$);
#178=IFCQUANTITYVOLUME('GrossVolume',$,$,13.5,$);
#177=IFCQUANTITYAREA('NetArea',$,$,54.,$);
#176=IFCQUANTITYAREA('GrossArea',$,$,54.,$);
#175=IFCQUANTITYLENGTH('Perimeter',$,$,30.,$);
#174=IFCQUANTITYLENGTH('Depth',$,$,0.25,$);
#173=IFCQUANTITYLENGTH('Length',$,$,9.,$);
#172=IFCQUANTITYLENGTH('Width',$,$,6.,$);
#171=IFCRELDEFINESBYPROPERTIES('18HhWiV8LNEOZbgUOxiNDB',#6,$,$,(#168),#170);
#170=IFCPROPERTYSET('19Hhc$UuLLfedbgtawiN6u',#6,'Pset_SlabCommon',$,(#169));
#169=IFCPROPERTYSINGLEVALUE('LoadBearing',$,IFCBOOLEAN(.T.),$);
#168=IFCSLAB('3WUy3_8BvVzxLc8eoD6oer',#6,'Slab 1',$,$,#156,#167,$,$);
#167=IFCPRODUCTDEFINITIONSHAPE($,$,(#166));
#166=IFCSHAPEREPRESENTATION(#16,'Body','SweptSolid',(#165));
#165=IFCEXTRUDEDAREASOLID(#159,#163,#164,0.25);
#164=IFCDIRECTION((0.,0.,1.));
#163=IFCAXIS2PLACEMENT3D(#160,#161,#162);
#162=IFCDIRECTION((1.,0.,0.));
#161=IFCDIRECTION((0.,0.,1.));
#160=IFCCARTESIANPOINT((0.,0.,0.));
#159=IFCRECTANGLEPROFILEDEF(.AREA.,$,#158,9.,6.);
#158=IFCAXIS2PLACEMENT2D(#157,$);
#157=IFCCARTESIANPOINT((4.5,3.));
#156=IFCLOCALPLACEMENT(#36,#155);
#155=IFCAXIS2PLACEMENT3D(#152,#153,#154);
#154=IFCDIRECTION((1.,0.,0.));
#153=IFCDIRECTION((0.,0.,1.));
#152=IFCCARTESIANPOINT((0.,0.,-0.25));
#151=IFCRELDEFINESBYPROPERTIES('3SGP3wa81PXvJh0tX7jWDT',#6,$,$,(#134),#150);
#150=IFCELEMENTQUANTITY('3TGPADZu1Nz9Nh1Gj6jW7A',#6,'Qto_WallBaseQuantities',$,'BaseQuantities',(#140,#141,#142,#143,#144,#145,#146,#147,#148,#149));
#149=IFCQUANTITYWEIGHT('GrossWeight',$,$,8640.000000000002,$);
#148=IFCQUANTITYVOLUME('NetVolume',$,$,3.6000000000000005,$);
#147=IFCQUANTITYVOLUME('GrossVolume',$,$,3.6000000000000005,$);
#146=IFCQUANTITYAREA('NetSideArea',$,$,18.,$);
#145=IFCQUANTITYAREA('GrossSideArea',$,$,18.,$);
#144=IFCQUANTITYAREA('NetFootprintArea',$,$,1.2000000000000002,$);
#143=IFCQUANTITYAREA('GrossFootprintArea',$,$,1.2000000000000002,$);
#142=IFCQUANTITYLENGTH('Height',$,$,3.,$);
#141=IFCQUANTITYLENGTH('Width',$,$,0.2,$);
#140=IFCQUANTITYLENGTH('Length',$,$,6.,$);
#139=IFCRELDEFINESBYPROPERTIES('38FFHG37jSZPZlXlAxkpSd',#6,$,$,(#134),#138);
#138=IFCPROPERTYSET('39FFNZ2tjQ_fdlY8MwkpMK',#6,'Pset_WallCommon',$,(#135,#136,#137));
#137=IFCPROPERTYSINGLEVALUE('FireRating',$,IFCLABEL('REI 120'),$);
#136=IFCPROPERTYSINGLEVALUE('LoadBearing',$,IFCBOOLEAN(.T.),$);
#135=IFCPROPERTYSINGLEVALUE('IsExternal',$,IFCBOOLEAN(.T.),$);
#134=IFCWALL('2XAz8MTt9Q9ubMaPpMza8b',#6,'Wall 3',$,$,#118,#133,$,$);
#133=IFCPRODUCTDEFINITIONSHAPE($,$,(#132,#128));
#132=IFCSHAPEREPRESENTATION(#16,'Axis','Curve2D',(#131));
#131=IFCPOLYLINE((#129,#130));
#130=IFCCARTESIANPOINT((6.,0.));
#129=IFCCARTESIANPOINT((0.,0.));
#128=IFCSHAPEREPRESENTATION(#16,'Body','SweptSolid',(#127));
#127=IFCEXTRUDEDAREASOLID(#119,#125,#126,6.);
#126=IFCDIRECTION((0.,0.,1.));
#125=IFCAXIS2PLACEMENT3D(#122,#123,#124);
#124=IFCDIRECTION((0.,1.,0.));
#123=IFCDIRECTION((1.,0.,0.));
#122=IFCCARTESIANPOINT((0.,0.,0.));
#119=IFCRECTANGLEPROFILEDEF(.AREA.,$,#121,0.2,3.);
#121=IFCAXIS2PLACEMENT2D(#120,$);
#120=IFCCARTESIANPOINT((0.,0.));
#118=IFCLOCALPLACEMENT(#36,#117);
#117=IFCAXIS2PLACEMENT3D(#114,#115,#116);
#116=IFCDIRECTION((0.,-1.,0.));
#115=IFCDIRECTION((0.,0.,1.));
#114=IFCCARTESIANPOINT((9.,6.,0.));
#113=IFCRELDEFINESBYPROPERTIES('12DwGm_dTJ2OxqlU8zm83x',#6,$,$,(#96),#112);
#112=IFCELEMENTQUANTITY('13DwN3_NTHTe$qltKym7ze',#6,'Qto_WallBaseQuantities',$,'BaseQuantities',(#102,#103,#104,#105,#106,#107,#108,#109,#110,#111));
#111=IFCQUANTITYWEIGHT('GrossWeight',$,$,11030.4,$);
#110=IFCQUANTITYVOLUME('NetVolume',$,$,4.596,$);
#109=IFCQUANTITYVOLUME('GrossVolume',$,$,5.4,$);
#108=IFCQUANTITYAREA('NetSideArea',$,$,22.98,$);
#107=IFCQUANTITYAREA('GrossSideArea',$,$,27.,$);
#106=IFCQUANTITYAREA('NetFootprintArea',$,$,1.6,$);
#105=IFCQUANTITYAREA('GrossFootprintArea',$,$,1.8,$);
#104=IFCQUANTITYLENGTH('Height',$,$,3.,$);
#103=IFCQUANTITYLENGTH('Width',$,$,0.2,$);
#102=IFCQUANTITYLENGTH('Length',$,$,9.,$);
#101=IFCRELDEFINESBYPROPERTIES('10DM9p$7bKneZoTTb3mia4',#6,$,$,(#96),#100);
#100=IFCPROPERTYSET('0$DM3W$NbMMOVoT4P4migN',#6,'Pset_WallCommon',$,(#97,#98,#99));
#99=IFCPROPERTYSINGLEVALUE('FireRating',$,IFCLABEL('REI 120'),$);
#98=IFCPROPERTYSINGLEVALUE('LoadBearing',$,IFCBOOLEAN(.T.),$);
#97=IFCPROPERTYSINGLEVALUE('IsExternal',$,IFCBOOLEAN(.T.),$);
#96=IFCWALL('2VAyxmUN9TJOjMbCBKzZx$',#6,'Wall 2',$,$,#80,#95,$,$);
#95=IFCPRODUCTDEFINITIONSHAPE($,$,(#94,#90));
#94=IFCSHAPEREPRESENTATION(#16,'Axis','Curve2D',(#93));
#93=IFCPOLYLINE((#91,#92));
#92=IFCCARTESIANPOINT((9.,0.));
#91=IFCCARTESIANPOINT((0.,0.));
#90=IFCSHAPEREPRESENTATION(#16,'Body','SweptSolid',(#89));
#89=IFCEXTRUDEDAREASOLID(#81,#87,#88,9.);
#88=IFCDIRECTION((0.,0.,1.));
#87=IFCAXIS2PLACEMENT3D(#84,#85,#86);
#86=IFCDIRECTION((0.,1.,0.));
#85=IFCDIRECTION((1.,0.,0.));
#84=IFCCARTESIANPOINT((0.,0.,0.));
#81=IFCRECTANGLEPROFILEDEF(.AREA.,$,#83,0.2,3.);
#83=IFCAXIS2PLACEMENT2D(#82,$);
#82=IFCCARTESIANPOINT((0.,0.));
#80=IFCLOCALPLACEMENT(#36,#79);
#79=IFCAXIS2PLACEMENT3D(#76,#77,#78);
#78=IFCDIRECTION((1.,0.,0.));
#77=IFCDIRECTION((0.,0.,1.));
#76=IFCCARTESIANPOINT((0.,6.,0.));
#75=IFCRELDEFINESBYPROPERTIES('1actR5HQXTXfXRYQiDm3e4',#6,$,$,(#58),#74);
#74=IFCELEMENTQUANTITY('1ZctKoHgXV6PTRY1WEm3kN',#6,'Qto_WallBaseQuantities',$,'BaseQuantities',(#64,#65,#66,#67,#68,#69,#70,#71,#72,#73));
#73=IFCQUANTITYWEIGHT('GrossWeight',$,$,8640.000000000002,$);
#72=IFCQUANTITYVOLUME('NetVolume',$,$,3.6000000000000005,$);
#71=IFCQUANTITYVOLUME('GrossVolume',$,$,3.6000000000000005,$);
#70=IFCQUANTITYAREA('NetSideArea',$,$,18.,$);
#69=IFCQUANTITYAREA('GrossSideArea',$,$,18.,$);
#68=IFCQUANTITYAREA('NetFootprintArea',$,$,1.2000000000000002,$);
#67=IFCQUANTITYAREA('GrossFootprintArea',$,$,1.2000000000000002,$);
#66=IFCQUANTITYLENGTH('Height',$,$,3.,$);
#65=IFCQUANTITYLENGTH('Width',$,$,0.2,$);
#64=IFCQUANTITYLENGTH('Length',$,$,6.,$);
#63=IFCRELDEFINESBYPROPERTIES('3cde82HwPI5PvUcpG3lUkl',#6,$,$,(#58),#62);
#62=IFCPROPERTYSET('3ddeELHgPGWfzUdCS2lUeS',#6,'Pset_WallCommon',$,(#59,#60,#61));
#61=IFCPROPERTYSINGLEVALUE('FireRating',$,IFCLABEL('REI 120'),$);
#60=IFCPROPERTYSINGLEVALUE('LoadBearing',$,IFCBOOLEAN(.T.),$);
#59=IFCPROPERTYSINGLEVALUE('IsExternal',$,IFCBOOLEAN(.T.),$);
#58=IFCWALL('3LlXcBta1SjBOdft6FD_jQ',#6,'Wall 1',$,$,#42,#57,$,$);
#57=IFCPRODUCTDEFINITIONSHAPE($,$,(#56,#52));
#56=IFCSHAPEREPRESENTATION(#16,'Axis','Curve2D',(#55));
#55=IFCPOLYLINE((#53,#54));
#54=IFCCARTESIANPOINT((6.,0.));
#53=IFCCARTESIANPOINT((0.,0.));
#52=IFCSHAPEREPRESENTATION(#16,'Body','SweptSolid',(#51));
#51=IFCEXTRUDEDAREASOLID(#43,#49,#50,6.);
#50=IFCDIRECTION((0.,0.,1.));
#49=IFCAXIS2PLACEMENT3D(#46,#47,#48);
#48=IFCDIRECTION((0.,1.,0.));
#47=IFCDIRECTION((1.,0.,0.));
#46=IFCCARTESIANPOINT((0.,0.,0.));
#43=IFCRECTANGLEPROFILEDEF(.AREA.,$,#45,0.2,3.);
#45=IFCAXIS2PLACEMENT2D(#44,$);
#44=IFCCARTESIANPOINT((0.,0.));
#42=IFCLOCALPLACEMENT(#36,#41);
#41=IFCAXIS2PLACEMENT3D(#38,#39,#40);
#40=IFCDIRECTION((0.,1.,0.));
#39=IFCDIRECTION((0.,0.,1.));
#38=IFCCARTESIANPOINT((0.,0.,0.));
#37=IFCBUILDINGSTOREY('0EMHm$KqzH38XL__r_$Z02',#6,'Ground',$,$,#36,$,$,.ELEMENT.,0.);
#36=IFCLOCALPLACEMENT(#30,#35);
#35=IFCAXIS2PLACEMENT3D(#32,#33,#34);
#34=IFCDIRECTION((1.,0.,0.));
#33=IFCDIRECTION((0.,0.,1.));
#32=IFCCARTESIANPOINT((0.,0.,0.));
#31=IFCBUILDING('1XYf46EbPL4RGDtR2EcAV3',#6,'Interop Pavilion',$,$,#30,$,$,.ELEMENT.,$,$,$);
#30=IFCLOCALPLACEMENT(#24,#29);
#29=IFCAXIS2PLACEMENT3D(#26,#27,#28);
#28=IFCDIRECTION((1.,0.,0.));
#27=IFCDIRECTION((0.,0.,1.));
#26=IFCCARTESIANPOINT((0.,0.,0.));
#25=IFCSITE('1FoDMExrbH$P_gc6XXN3G$',#6,'Interop Site',$,$,#24,$,$,.ELEMENT.,$,$,$,$,$);
#24=IFCLOCALPLACEMENT($,#23);
#23=IFCAXIS2PLACEMENT3D(#20,#21,#22);
#22=IFCDIRECTION((1.,0.,0.));
#21=IFCDIRECTION((0.,0.,1.));
#20=IFCCARTESIANPOINT((0.,0.,0.));
#19=IFCPROJECT('39InrBayPTqhyMRldG0qim',#6,'brepjs-bim Interop Fixture',$,$,$,$,(#11),#10);
#18=IFCMAPCONVERSION(#11,#17,401200.,5701500.,0.,$,$,$);
#17=IFCPROJECTEDCRS('EPSG:25832',$,'ETRS89',$,'UTM','32N',#7);
#16=IFCGEOMETRICREPRESENTATIONSUBCONTEXT('Body','Model',*,*,*,*,#11,$,.MODEL_VIEW.,$);
#11=IFCGEOMETRICREPRESENTATIONCONTEXT($,'Model',3,1.E-05,#15,$);
#15=IFCAXIS2PLACEMENT3D(#12,#13,#14);
#14=IFCDIRECTION((1.,0.,0.));
#13=IFCDIRECTION((0.,0.,1.));
#10=IFCUNITASSIGNMENT((#7,#8,#9));
#9=IFCSIUNIT(*,.VOLUMEUNIT.,$,.CUBIC_METRE.);
#8=IFCSIUNIT(*,.AREAUNIT.,$,.SQUARE_METRE.);
#7=IFCSIUNIT(*,.LENGTHUNIT.,$,.METRE.);
#6=IFCOWNERHISTORY(#5,#3,$,.NOTDEFINED.,$,$,$,0);
#5=IFCPERSONANDORGANIZATION(#4,#1,$);
#4=IFCPERSON('unknown',$,$,$,$,$,$,$);
#3=IFCAPPLICATION(#2,'1','brepjs-bim-interop-fixture','brepjs-bim-interop-fixture');
#2=IFCORGANIZATION($,'brepjs-bim-interop-fixture',$,$,$);
#12=IFCCARTESIANPOINT((0.,0.,0.));
#1=IFCORGANIZATION($,'brepjs',$,$,$);
ENDSEC;
END-ISO-10303-21;