<svg xmlns="http://www.w3.org/2000/svg" viewBox="-3.000001 -3.000001 106.000002 66.000002" width="200" height="200">
  <rect width="100%" height="100%" fill="#1a1a2e" />
  <g fill="none" stroke="#4dabf7" stroke-width="0.8%" vector-effect="non-scaling-stroke">
    <path d="M 0 0 L 0 60 L 100 60" />
    <path d="M 0 0 L 100 0 L 100 60" />
    <path d="M 19 15 A 4 4 0 0 1 18.51033 16.9177 A 4 4 0 1 1 19 15 Z" />
    <path d="M 89 15 A 4 4 0 0 1 88.51033 16.9177 A 4 4 0 1 1 89 15 Z" />
    <path d="M 19 45 A 4 4 0 0 1 18.51033 46.9177 A 4 4 0 1 1 19 45 Z" />
    <path d="M 80 20 L 20 20 L 20 40" />
    <path d="M 80 20 L 80 40 L 20 40" />
    <path d="M 89 45 A 4 4 0 0 1 88.51033 46.9177 A 4 4 0 1 1 89 45 Z" />
  </g>
</svg>
