<svg xmlns="http://www.w3.org/2000/svg" viewBox="-28.000001 -83.000001 56.000002 86.000002" width="200" height="200">
  <rect width="100%" height="100%" fill="#1a1a2e" />
  <g fill="none" stroke="#4dabf7" stroke-width="0.8%" vector-effect="non-scaling-stroke">
    <path d="M -25 -80 L -24.3732 -80 L -22.52422 -80 L -19.54579 -80 L -15.58725 -80 L -10.84709 -80 L -5.56302 -80 L 0 -80 L 5.56302 -80 L 10.84709 -80 L 15.58725 -80 L 19.54579 -80 L 22.52422 -80 L 24.3732 -80 L 25 -80" />
    <path d="M 25 -75 L 25 -80" />
    <path d="M -25 -75 L -24.3732 -75 L -22.52422 -75 L -19.54579 -75 L -15.58725 -75 L -10.84709 -75 L -5.56302 -75 L 0 -75 L 5.56302 -75 L 10.84709 -75 L 15.58725 -75 L 19.54579 -75 L 22.52422 -75 L 24.3732 -75 L 25 -75" />
    <path d="M 15 -5 L 15 -75" />
    <path d="M -25 -5 L -24.3732 -5 L -22.52422 -5 L -19.54579 -5 L -15.58725 -5 L -10.84709 -5 L -5.56302 -5 L 0 -5 L 5.56302 -5 L 10.84709 -5 L 15.58725 -5 L 19.54579 -5 L 22.52422 -5 L 24.3732 -5 L 25 -5" />
    <path d="M 25 0 L 25 -5" />
    <path d="M -25 0 L -24.3732 0 L -22.52422 0 L -19.54579 0 L -15.58725 0 L -10.84709 0 L -5.56302 0 L 0 0 L 5.56302 0 L 10.84709 0 L 15.58725 0 L 19.54579 0 L 22.52422 0 L 24.3732 0 L 25 0" />
    <path d="M -25 -75 L -25 -80" />
    <path d="M -15 -5 L -15 -75" />
    <path d="M -25 0 L -25 -5" />
  </g>
</svg>
